<svg width="22" height="22" viewBox="0 0 22 22" fill="none" xmlns="http://www.w3.org/2000/svg">
<path fill-rule="evenodd" clip-rule="evenodd" d="M0.714355 0.714233H2.00007V19.9999H21.2858V21.2857H0.714355V0.714233ZM19.7648 4.71666C19.8302 4.77016 19.8844 4.83602 19.9243 4.91047C19.9642 4.98493 19.989 5.06652 19.9974 5.15058C20.0057 5.23464 19.9974 5.31953 19.973 5.40038C19.9485 5.48124 19.9083 5.55648 19.8548 5.6218L14.0691 12.6932C14.0122 12.7626 13.9414 12.8194 13.8613 12.8598C13.7812 12.9002 13.6935 12.9234 13.6039 12.9279C13.5143 12.9324 13.4247 12.918 13.341 12.8858C13.2572 12.8536 13.1811 12.8042 13.1176 12.7408L9.7915 9.41466L5.09093 15.8779C4.9881 16.0087 4.83859 16.0945 4.67382 16.1173C4.50905 16.1402 4.34185 16.0982 4.20735 16.0003C4.07285 15.9025 3.98153 15.7563 3.95257 15.5925C3.92361 15.4287 3.95928 15.26 4.05207 15.1219L9.19493 8.05052C9.24951 7.97532 9.31975 7.91285 9.40081 7.86742C9.48186 7.82198 9.5718 7.79465 9.66443 7.78732C9.75706 7.77999 9.85018 7.79283 9.93738 7.82494C10.0246 7.85706 10.1038 7.9077 10.1695 7.97338L13.5239 11.3291L18.8596 4.80666C18.9131 4.74128 18.979 4.68709 19.0535 4.64718C19.1279 4.60727 19.2095 4.58242 19.2936 4.57406C19.3776 4.56571 19.4625 4.574 19.5434 4.59846C19.6242 4.62293 19.6995 4.6631 19.7648 4.71666Z" fill="#D2FFE7" stroke="#D2FFE7" stroke-width="1.2" stroke-linejoin="round"/>
</svg>
