<svg width="24" height="24" viewBox="0 0 24 24" fill="none" xmlns="http://www.w3.org/2000/svg">
<path d="M2.4 10.3417H2.075V10.6667V21.3333V21.6583H2.4H7.2H7.525V21.3333V10.6667V10.3417H7.2H2.4ZM9.6 2.34167H9.275V2.66667V21.3333V21.6583H9.6H14.4H14.725V21.3333V2.66667V2.34167H14.4H9.6ZM16.8 13.0083H16.475V13.3333V21.3333V21.6583H16.8H21.6H21.925V21.3333V13.3333V13.0083H21.6H16.8ZM7.2 8.325H7.525V8V2.66667C7.525 2.00984 7.73296 1.46032 8.14717 1.00008C8.55956 0.54187 9.03854 0.325 9.6 0.325H14.4C14.9613 0.325 15.4407 0.54179 15.8539 0.999936C16.2674 1.46014 16.475 2.00971 16.475 2.66667V10.6667V10.9917H16.8H21.6C22.1614 10.9917 22.6408 11.2085 23.0541 11.6668C23.4674 12.1269 23.675 12.6765 23.675 13.3333V21.3333C23.675 21.9903 23.4673 22.5399 23.0538 23.0001C22.6407 23.4582 22.1613 23.675 21.6 23.675H2.4C1.83854 23.675 1.35956 23.4581 0.947171 22.9999C0.532956 22.5397 0.325 21.9902 0.325 21.3333V10.6667C0.325 10.0098 0.532956 9.46032 0.947171 9.00008C1.35956 8.54187 1.83854 8.325 2.4 8.325H7.2Z" fill="#D2FFE7" stroke="#D2FFE7" stroke-width="0.65"/>
</svg>
