<svg width="13" height="12" viewBox="0 0 13 12" fill="none" xmlns="http://www.w3.org/2000/svg">
<path d="M6.63623 12C4.96123 12 3.54248 11.4187 2.37998 10.2562C1.21748 9.09375 0.63623 7.675 0.63623 6C0.63623 4.325 1.21748 2.90625 2.37998 1.74375C3.54248 0.58125 4.96123 0 6.63623 0C7.49873 0 8.32373 0.17825 9.11123 0.53475C9.89873 0.89075 10.5737 1.4 11.1362 2.0625V0.75C11.1362 0.5375 11.2082 0.35925 11.3522 0.21525C11.4957 0.0717501 11.6737 0 11.8862 0C12.0987 0 12.2767 0.0717501 12.4202 0.21525C12.5642 0.35925 12.6362 0.5375 12.6362 0.75V4.5C12.6362 4.7125 12.5642 4.8905 12.4202 5.034C12.2767 5.178 12.0987 5.25 11.8862 5.25H8.13623C7.92373 5.25 7.74573 5.178 7.60223 5.034C7.45823 4.8905 7.38623 4.7125 7.38623 4.5C7.38623 4.2875 7.45823 4.10925 7.60223 3.96525C7.74573 3.82175 7.92373 3.75 8.13623 3.75H10.5362C10.1362 3.05 9.58948 2.5 8.89598 2.1C8.20198 1.7 7.44873 1.5 6.63623 1.5C5.38623 1.5 4.32373 1.9375 3.44873 2.8125C2.57373 3.6875 2.13623 4.75 2.13623 6C2.13623 7.25 2.57373 8.3125 3.44873 9.1875C4.32373 10.0625 5.38623 10.5 6.63623 10.5C7.49873 10.5 8.29573 10.2717 9.02723 9.81525C9.75823 9.35925 10.305 8.75 10.6675 7.9875C10.73 7.85 10.8332 7.7345 10.9772 7.641C11.1207 7.547 11.2675 7.5 11.4175 7.5C11.705 7.5 11.9207 7.6 12.0647 7.8C12.2082 8 12.2237 8.225 12.1112 8.475C11.6362 9.5375 10.905 10.3905 9.91748 11.034C8.92998 11.678 7.83623 12 6.63623 12Z" fill="#777777"/>
</svg>
