<svg width="66" height="66" viewBox="0 0 66 66" fill="none" xmlns="http://www.w3.org/2000/svg">
<g filter="url(#filter0_d_88_6801)">
<path d="M53 6H13C10.25 6 8 8.25 8 11V56L18 46H53C55.75 46 58 43.75 58 41V11C58 8.25 55.75 6 53 6Z" fill="white"/>
</g>
<g clip-path="url(#clip0_88_6801)">
<path fill-rule="evenodd" clip-rule="evenodd" d="M26.5491 32.8677C27.2076 32.8677 27.8513 32.676 28.3988 32.3168C28.9463 31.9576 29.373 31.4471 29.625 30.8499C29.877 30.2526 29.943 29.5954 29.8145 28.9613C29.686 28.3273 29.3689 27.7448 28.9033 27.2877C28.4377 26.8306 27.8445 26.5193 27.1986 26.3931C26.5528 26.267 25.8834 26.3317 25.275 26.5791C24.6666 26.8265 24.1467 27.2455 23.7808 27.783C23.415 28.3206 23.2197 28.9525 23.2197 29.599C23.2197 30.4659 23.5705 31.2973 24.1949 31.9103C24.8193 32.5233 25.6661 32.8677 26.5491 32.8677ZM26.5491 30.4162C26.7698 30.4162 26.9816 30.3301 27.1377 30.1768C27.2937 30.0236 27.3814 29.8157 27.3814 29.599C27.3814 29.3823 27.2937 29.1744 27.1377 29.0212C26.9816 28.8679 26.7698 28.7818 26.5491 28.7818C26.3283 28.7818 26.1166 28.8679 25.9605 29.0212C25.8044 29.1744 25.7168 29.3823 25.7168 29.599C25.7168 29.8157 25.8044 30.0236 25.9605 30.1768C26.1166 30.3301 26.3283 30.4162 26.5491 30.4162Z" fill="#00B0B9"/>
<path fill-rule="evenodd" clip-rule="evenodd" d="M43.1958 29.599C43.1958 30.2455 43.0006 30.8774 42.6348 31.415C42.2689 31.9525 41.7489 32.3715 41.1406 32.6189C40.5322 32.8663 39.8628 32.931 39.217 32.8049C38.5711 32.6788 37.9779 32.3674 37.5123 31.9103C37.0466 31.4532 36.7295 30.8707 36.6011 30.2367C36.4726 29.6026 36.5386 28.9454 36.7905 28.3481C37.0425 27.7509 37.4693 27.2404 38.0168 26.8812C38.5643 26.522 39.208 26.3303 39.8665 26.3303C40.7495 26.3303 41.5963 26.6747 42.2207 27.2877C42.8451 27.9007 43.1958 28.7321 43.1958 29.599ZM40.6988 29.599C40.6988 29.8157 40.6111 30.0236 40.455 30.1768C40.2989 30.3301 40.0872 30.4162 39.8665 30.4162C39.6457 30.4162 39.434 30.3301 39.2779 30.1768C39.1218 30.0236 39.0341 29.8157 39.0341 29.599C39.0341 29.3823 39.1218 29.1744 39.2779 29.0212C39.434 28.8679 39.6457 28.7818 39.8665 28.7818C40.0872 28.7818 40.2989 28.8679 40.455 29.0212C40.6111 29.1744 40.6988 29.3823 40.6988 29.599Z" fill="#00B0B9"/>
<path fill-rule="evenodd" clip-rule="evenodd" d="M17.5939 33.9627C18.4221 35.5989 19.6994 36.9755 21.2818 37.9371C22.8643 38.8987 24.6889 39.4071 26.5499 39.405H39.8674C41.7934 39.4028 43.6777 38.854 45.2932 37.8246C46.9088 36.7952 48.1868 35.3292 48.9732 33.6031C49.6259 33.1503 50.1584 32.5503 50.5259 31.8536C50.8934 31.1568 51.0852 30.3836 51.0852 29.599C51.0852 28.8144 50.8934 28.0412 50.5259 27.3444C50.1584 26.6477 49.6259 26.0477 48.9732 25.5949C48.1868 23.8688 46.9088 22.4028 45.2932 21.3734C43.6777 20.344 41.7934 19.7952 39.8674 19.793H26.5499C24.6889 19.7909 22.8643 20.2993 21.2818 21.2609C19.6994 22.2226 18.4221 23.5991 17.5939 25.2353C16.7759 25.6468 16.0894 26.2719 15.61 27.0418C15.1306 27.8117 14.877 28.6966 14.877 29.599C14.877 30.5014 15.1306 31.3863 15.61 32.1562C16.0894 32.9261 16.7759 33.5512 17.5939 33.9627ZM26.5499 23.0617H39.8674C40.9596 23.0618 42.035 23.3258 42.9988 23.8303C43.9626 24.3347 44.7852 25.0642 45.3942 25.9544C46.3264 28.298 46.3264 30.9001 45.3942 33.2436C44.7852 34.1338 43.9626 34.8633 42.9988 35.3677C42.035 35.8722 40.9596 36.1362 39.8674 36.1364H26.5499C24.7839 36.1364 23.0902 35.4476 21.8415 34.2216C20.5927 32.9956 19.8912 31.3328 19.8912 29.599C19.8912 27.8652 20.5927 26.2024 21.8415 24.9764C23.0902 23.7504 24.7839 23.0617 26.5499 23.0617Z" fill="#00B0B9"/>
<ellipse cx="33.0003" cy="15.4827" rx="2.58621" ry="2.58621" fill="#00B0B9"/>
<rect x="32.1377" y="14.6206" width="1.72414" height="5.17241" fill="#00B0B9"/>
</g>
<defs>
<filter id="filter0_d_88_6801" x="0" y="0" width="66" height="66" filterUnits="userSpaceOnUse" color-interpolation-filters="sRGB">
<feFlood flood-opacity="0" result="BackgroundImageFix"/>
<feColorMatrix in="SourceAlpha" type="matrix" values="0 0 0 0 0 0 0 0 0 0 0 0 0 0 0 0 0 0 127 0" result="hardAlpha"/>
<feOffset dy="2"/>
<feGaussianBlur stdDeviation="4"/>
<feComposite in2="hardAlpha" operator="out"/>
<feColorMatrix type="matrix" values="0 0 0 0 0.00705388 0 0 0 0 0.139162 0 0 0 0 0.194974 0 0 0 0.2 0"/>
<feBlend mode="normal" in2="BackgroundImageFix" result="effect1_dropShadow_88_6801"/>
<feBlend mode="normal" in="SourceGraphic" in2="effect1_dropShadow_88_6801" result="shape"/>
</filter>
<clipPath id="clip0_88_6801">
<rect width="36.2069" height="25.8621" fill="white" transform="translate(14.8965 12.8965)"/>
</clipPath>
</defs>
</svg>
