<svg width="98" height="98" viewBox="0 0 98 98" fill="none" xmlns="http://www.w3.org/2000/svg">
<g filter="url(#filter0_d_88_6788)">
<path d="M76.2 11H21.8C18.06 11 15 14.06 15 17.8V79L28.6 65.4H76.2C79.94 65.4 83 62.34 83 58.6V17.8C83 14.06 79.94 11 76.2 11Z" fill="#069DA5"/>
<path d="M28.6 63.9H27.9787L27.5393 64.3393L16.5 75.3787V17.8C16.5 14.8884 18.8884 12.5 21.8 12.5H76.2C79.1116 12.5 81.5 14.8884 81.5 17.8V58.6C81.5 61.5116 79.1116 63.9 76.2 63.9H28.6Z" stroke="white" stroke-width="3"/>
</g>
<g clip-path="url(#clip0_88_6788)">
<path fill-rule="evenodd" clip-rule="evenodd" d="M40.8051 46.4833C41.6417 46.4833 42.4595 46.2387 43.1551 45.7804C43.8507 45.3221 44.3928 44.6707 44.713 43.9085C45.0331 43.1464 45.1169 42.3078 44.9537 41.4987C44.7905 40.6897 44.3876 39.9465 43.7961 39.3632C43.2045 38.7799 42.4508 38.3827 41.6303 38.2217C40.8098 38.0608 39.9593 38.1434 39.1864 38.4591C38.4135 38.7748 37.7528 39.3094 37.2881 39.9952C36.8233 40.6811 36.5752 41.4875 36.5752 42.3124C36.5752 43.4186 37.0208 44.4795 37.8141 45.2617C38.6074 46.0438 39.6832 46.4833 40.8051 46.4833ZM40.8051 43.3551C41.0855 43.3551 41.3545 43.2453 41.5528 43.0497C41.7511 42.8542 41.8626 42.589 41.8626 42.3124C41.8626 42.0359 41.7511 41.7707 41.5528 41.5751C41.3545 41.3796 41.0855 41.2697 40.8051 41.2697C40.5246 41.2697 40.2557 41.3796 40.0573 41.5751C39.859 41.7707 39.7476 42.0359 39.7476 42.3124C39.7476 42.589 39.859 42.8542 40.0573 43.0497C40.2557 43.2453 40.5246 43.3551 40.8051 43.3551Z" fill="white"/>
<path fill-rule="evenodd" clip-rule="evenodd" d="M61.9539 42.3124C61.9539 43.1373 61.7058 43.9437 61.2411 44.6296C60.7763 45.3155 60.1156 45.8501 59.3427 46.1658C58.5698 46.4815 57.7193 46.5641 56.8988 46.4031C56.0783 46.2422 55.3246 45.845 54.733 45.2617C54.1415 44.6784 53.7386 43.9352 53.5754 43.1261C53.4122 42.3171 53.496 41.4784 53.8161 40.7163C54.1363 39.9542 54.6784 39.3028 55.374 38.8445C56.0696 38.3862 56.8874 38.1416 57.724 38.1416C58.8459 38.1416 59.9218 38.581 60.715 39.3632C61.5083 40.1454 61.9539 41.2063 61.9539 42.3124ZM58.7815 42.3124C58.7815 42.589 58.6701 42.8542 58.4718 43.0497C58.2735 43.2453 58.0045 43.3551 57.724 43.3551C57.4436 43.3551 57.1746 43.2453 56.9763 43.0497C56.778 42.8542 56.6666 42.589 56.6666 42.3124C56.6666 42.0359 56.778 41.7707 56.9763 41.5751C57.1746 41.3796 57.4436 41.2697 57.724 41.2697C58.0045 41.2697 58.2735 41.3796 58.4718 41.5751C58.6701 41.7707 58.7815 42.0359 58.7815 42.3124Z" fill="white"/>
<path fill-rule="evenodd" clip-rule="evenodd" d="M29.4264 47.8806C30.4786 49.9685 32.1014 51.7249 34.1119 52.9519C36.1223 54.1789 38.4404 54.8277 40.8048 54.8251H57.7244C60.1713 54.8222 62.5652 54.1219 64.6178 52.8084C66.6703 51.4949 68.294 49.6243 69.2931 47.4218C70.1223 46.844 70.7988 46.0784 71.2657 45.1894C71.7326 44.3003 71.9763 43.3137 71.9763 42.3126C71.9763 41.3114 71.7326 40.3248 71.2657 39.4357C70.7988 38.5467 70.1223 37.7811 69.2931 37.2033C68.294 35.0008 66.6703 33.1302 64.6178 31.8167C62.5652 30.5032 60.1713 29.8029 57.7244 29.8001H40.8048C38.4404 29.7974 36.1223 30.4462 34.1119 31.6732C32.1014 32.9002 30.4786 34.6567 29.4264 36.7445C28.3872 37.2695 27.515 38.0671 26.9059 39.0496C26.2969 40.032 25.9746 41.1611 25.9746 42.3126C25.9746 43.464 26.2969 44.5931 26.9059 45.5755C27.515 46.558 28.3872 47.3556 29.4264 47.8806ZM40.8048 33.9709H57.7244C59.112 33.9711 60.4783 34.3079 61.7028 34.9516C62.9273 35.5954 63.9724 36.5262 64.746 37.6621C65.9304 40.6524 65.9304 43.9727 64.746 46.963C63.9724 48.0989 62.9273 49.0298 61.7028 49.6735C60.4783 50.3172 59.112 50.654 57.7244 50.6542H40.8048C38.5612 50.6542 36.4094 49.7754 34.8229 48.211C33.2364 46.6466 32.3451 44.5249 32.3451 42.3126C32.3451 40.1002 33.2364 37.9785 34.8229 36.4141C36.4094 34.8497 38.5612 33.9709 40.8048 33.9709Z" fill="white"/>
<ellipse cx="48.9996" cy="24.3" rx="3.28571" ry="3.3" fill="white"/>
<rect x="47.9043" y="23.2" width="2.19048" height="6.6" fill="white"/>
</g>
<rect x="55" y="4" width="37" height="18" rx="9" fill="#1D3C6A"/>
<path d="M66.6094 11.2812C66.4043 10.1855 65.4961 9.57617 64.418 9.58203C62.9531 9.57617 61.8691 10.7012 61.8633 12.7578C61.8691 14.8262 62.959 15.9395 64.418 15.9336C65.4844 15.9395 66.3867 15.3418 66.6094 14.2578L67.9102 14.2695C67.6406 15.9453 66.2754 17.1172 64.4062 17.1172C62.1973 17.1172 60.5859 15.4707 60.5859 12.7578C60.5859 10.0449 62.209 8.39844 64.4062 8.39844C66.1992 8.39844 67.623 9.45898 67.9102 11.2812H66.6094ZM70.4531 13.2266V17H69.1992V8.51562H70.4297V11.6797H70.5117C70.8105 10.9883 71.4082 10.5547 72.3984 10.5547C73.7051 10.5547 74.5781 11.3633 74.5781 12.957V17H73.3242V13.1094C73.3242 12.1719 72.8203 11.6328 71.9766 11.6328C71.0918 11.6328 70.4531 12.2129 70.4531 13.2266ZM75.7969 15.207C75.791 13.7539 77.0273 13.3789 78.1758 13.2969C78.5977 13.2734 79.5527 13.2207 79.8457 13.209L79.8398 12.6992C79.8457 11.9785 79.4004 11.5625 78.5508 11.5625C77.8125 11.5625 77.3672 11.9023 77.2383 12.3711H75.9961C76.1074 11.3164 77.0918 10.5547 78.5977 10.5547C79.6113 10.5547 81.0879 10.9238 81.0938 12.7695V17H79.875V16.1328H79.8281C79.582 16.6074 78.9961 17.1406 77.9414 17.1406C76.7344 17.1406 75.791 16.4492 75.7969 15.207ZM77.0156 15.2188C77.0156 15.8281 77.5195 16.1387 78.2227 16.1445C79.2422 16.1387 79.8516 15.459 79.8516 14.7031L79.8457 14.123C79.5586 14.1406 78.6504 14.2051 78.3516 14.2227C77.5312 14.2812 77.0156 14.5918 77.0156 15.2188ZM85.582 10.6367V11.6328H84.2812V15.125C84.2871 15.8457 84.6387 15.9746 85.043 15.9805C85.2246 15.9805 85.5 15.9629 85.6758 15.9453V17.0352C85.5059 17.0586 85.2363 17.082 84.8906 17.082C83.9121 17.082 83.0273 16.543 83.0391 15.3828V11.6328H82.1016V10.6367H83.0391V9.11328H84.2812V10.6367H85.582Z" fill="white"/>
<defs>
<filter id="filter0_d_88_6788" x="0" y="0" width="98" height="98" filterUnits="userSpaceOnUse" color-interpolation-filters="sRGB">
<feFlood flood-opacity="0" result="BackgroundImageFix"/>
<feColorMatrix in="SourceAlpha" type="matrix" values="0 0 0 0 0 0 0 0 0 0 0 0 0 0 0 0 0 0 127 0" result="hardAlpha"/>
<feOffset dy="4"/>
<feGaussianBlur stdDeviation="7.5"/>
<feComposite in2="hardAlpha" operator="out"/>
<feColorMatrix type="matrix" values="0 0 0 0 0 0 0 0 0 0.156971 0 0 0 0 0.164998 0 0 0 0.25 0"/>
<feBlend mode="normal" in2="BackgroundImageFix" result="effect1_dropShadow_88_6788"/>
<feBlend mode="normal" in="SourceGraphic" in2="effect1_dropShadow_88_6788" result="shape"/>
</filter>
<clipPath id="clip0_88_6788">
<rect width="46" height="33" fill="white" transform="translate(26 21)"/>
</clipPath>
</defs>
</svg>
