<svg width="90" height="22" viewBox="0 0 90 22" fill="none" xmlns="http://www.w3.org/2000/svg">
<path d="M4.05949 4.79663C2.50479 4.79663 0.950095 4.88273 0.0863724 4.88273H0V17.281H0.0863724H0.690978C1.5547 17.281 2.41842 17.3671 3.45489 17.3671C7.7735 17.3671 10.2783 14.9563 10.2783 10.9097C10.2783 6.86301 8.20536 4.79663 4.05949 4.79663ZM2.50479 6.94911C2.85028 6.94911 3.36852 6.94911 3.88675 6.94911C6.47792 6.94911 7.68713 8.2406 7.68713 11.0819C7.68713 13.751 6.2188 15.2146 3.71401 15.2146C3.28215 15.2146 2.85028 15.1285 2.50479 15.1285V6.94911Z" fill="#00592D"/>
<path d="M16.0645 7.89648C13.3006 7.89648 11.4004 9.96287 11.4004 12.8041C11.4004 15.6454 12.8687 17.4535 15.719 17.4535C18.3102 17.4535 20.3831 15.3871 20.3831 12.8041C20.3831 12.718 20.3831 12.6319 20.3831 12.5458C20.3831 9.61847 18.8284 7.98258 16.0645 7.89648ZM15.8917 15.3871C14.5962 15.3871 13.9052 14.44 13.9052 12.6319C13.9052 10.8239 14.9417 10.049 15.8917 10.049C17.1873 10.049 17.7919 10.91 17.7919 12.6319C17.7919 14.3539 17.101 15.301 15.8917 15.3871Z" fill="#00592D"/>
<path d="M36.6209 7.98242C33.5115 7.98242 31.6113 9.96271 31.6113 13.2345C31.6113 15.9897 32.8205 17.5394 35.0662 17.5394C36.1027 17.5394 37.1392 17.0228 37.6574 16.0758C37.6574 16.4202 37.6574 16.7645 37.6574 17.1089V17.2811C37.6574 18.8309 36.88 19.4336 35.1526 19.4336C34.2025 19.4336 33.3388 19.2614 32.4751 18.917H32.3887L32.1296 21.1556H32.2159C33.166 21.4139 34.0297 21.5 34.9798 21.5C39.1257 21.5 40.0758 19.1753 40.0758 17.195V8.24072H39.9894C38.8666 8.06852 37.7438 7.98242 36.6209 7.98242ZM35.6708 15.387C34.6344 15.387 34.2025 14.526 34.2025 12.8901C34.2025 10.9098 34.9798 9.87661 36.4482 9.87661C36.88 9.87661 37.2255 9.87661 37.571 9.96271V12.3735C37.571 13.9233 36.9664 15.387 35.6708 15.387Z" fill="#00592D"/>
<path d="M51.8234 11.6844C51.5643 12.5454 51.3916 13.3203 51.2188 14.0951C51.0461 13.2342 50.787 12.3732 50.5279 11.5983L49.405 8.1543H47.073L46.0365 11.6844C45.7774 12.4593 45.6046 13.2342 45.4319 14.009C45.2591 13.4064 45.0864 12.8037 44.9137 12.201C44.8273 12.0288 44.8273 11.7705 44.7409 11.5983L43.7908 8.1543H41.1133L43.8772 17.2808V17.3669H46.382L47.5048 13.5786C47.6776 12.9759 47.8503 12.3732 48.1094 11.5122C48.2822 12.1149 48.3685 12.7176 48.5413 13.3203L49.8369 17.3669H52.428L55.4511 8.1543H52.9463L51.8234 11.6844Z" fill="#00592D"/>
<path d="M61.8424 7.89628C60.6332 7.81018 59.5103 8.41287 58.9057 9.35996C58.9057 8.84337 58.9057 8.32677 58.9057 7.81018V3.84961H56.4873V17.2811H58.9057V12.89C58.9057 11.3402 59.8558 9.96266 60.9787 9.96266C61.756 9.96266 62.1015 10.3932 62.1015 11.4263V17.2811H64.5199V10.9097C64.6063 9.53216 64.0881 7.89628 61.8424 7.89628Z" fill="#00592D"/>
<path d="M69.9613 7.89648C68.7521 7.89648 67.6292 8.06868 66.5064 8.49918H66.42L66.6792 10.5656L66.7655 10.4795C67.6292 10.049 68.5793 9.79067 69.5294 9.79067C70.825 9.79067 71.3433 10.2212 71.3433 11.1683V11.5127C67.9747 11.5127 65.8154 12.8902 65.8154 14.9566C65.8154 16.5064 66.8519 17.3674 68.5793 17.3674C69.7885 17.4535 70.9114 16.8508 71.6024 15.9037C71.6024 16.3342 71.516 16.6786 71.516 17.1091V17.1952H73.9344V11.0822C74.0208 8.84358 72.8116 7.89648 69.9613 7.89648ZM69.4431 15.5593C68.7521 15.5593 68.4066 15.2149 68.4066 14.6983C68.4066 13.8373 69.4431 13.3207 71.4296 13.3207V13.4068C71.4296 14.5261 70.5659 15.4732 69.4431 15.5593Z" fill="#00592D"/>
<path d="M27.3798 7.89648C26.1706 7.89648 24.9614 8.41308 24.2704 9.44627C24.3568 9.01577 24.3568 8.58528 24.3568 8.06868H23.5794C22.7157 8.06868 21.852 8.06868 21.0747 8.15478H20.9883V9.79067H21.0747C21.4201 9.79067 21.7656 9.87677 22.0247 9.87677V17.1091H24.4432V12.718C24.4432 11.1683 25.3933 9.87677 26.5161 9.87677C27.2935 9.87677 27.6389 10.3073 27.6389 11.3405V17.1952H30.0574V10.8239C30.1437 9.53237 29.6255 7.89648 27.3798 7.89648Z" fill="#00592D"/>
<path d="M77.4221 12.8396V12.8499C77.4232 12.8543 77.4253 12.8582 77.4282 12.8615C77.4311 12.8648 77.4348 12.8674 77.4389 12.8689C77.4309 12.8803 77.4252 12.8931 77.4221 12.9068C77.4204 12.9188 77.4204 12.931 77.4221 12.9429H77.4338C77.3974 12.9641 77.3631 12.9889 77.3315 13.017C77.3339 13.0237 77.3339 13.031 77.3315 13.0377C77.3197 13.0842 77.2828 13.1066 77.2795 13.1514V13.1617C77.261 13.1824 77.2476 13.2065 77.2577 13.2237C77.2677 13.2409 77.2577 13.2409 77.2476 13.2478C77.2375 13.2547 77.2627 13.265 77.2828 13.2582C77.2837 13.2597 77.2842 13.2615 77.2842 13.2633C77.2842 13.2651 77.2837 13.2669 77.2828 13.2685C77.2627 13.2788 77.2459 13.2961 77.2577 13.3081C77.2582 13.3243 77.2622 13.3402 77.2694 13.3546C77.269 13.3699 77.2744 13.3847 77.2845 13.396C77.2857 13.4061 77.2898 13.4157 77.2963 13.4235C77.2937 13.4276 77.2924 13.4324 77.2924 13.4373C77.2924 13.4422 77.2937 13.4469 77.2963 13.4511V13.4683C77.2979 13.4757 77.2979 13.4833 77.2963 13.4907C77.2914 13.489 77.2861 13.489 77.2812 13.4907C77.2577 13.501 77.251 13.5045 77.2459 13.5303C77.2451 13.5329 77.2449 13.5356 77.2451 13.5383C77.2454 13.5411 77.2462 13.5437 77.2474 13.5461C77.2487 13.5485 77.2504 13.5506 77.2524 13.5523C77.2544 13.5541 77.2568 13.5554 77.2593 13.5561V13.5682C77.2539 13.5792 77.2494 13.5908 77.2459 13.6026H77.2711L77.2812 13.6147C77.2812 13.6147 77.2812 13.6302 77.2812 13.6337C77.2694 13.6337 77.2661 13.6492 77.2694 13.656C77.2769 13.6717 77.2837 13.6878 77.2895 13.7043C77.2927 13.7074 77.2969 13.7092 77.3013 13.7092C77.3057 13.7092 77.3099 13.7074 77.313 13.7043C77.3001 13.7095 77.2894 13.7193 77.2828 13.7318C77.2644 13.7439 77.256 13.7611 77.2677 13.7749C77.2795 13.7887 77.2963 13.7938 77.2946 13.8128C77.2929 13.8317 77.3483 13.8421 77.3667 13.8128C77.3685 13.8206 77.3713 13.8282 77.3751 13.8352C77.3449 13.8352 77.2979 13.8937 77.3516 13.8886C77.3634 13.8886 77.3701 13.9006 77.3734 13.9092H77.3885L77.3835 13.9265C77.3835 13.942 77.4003 13.9471 77.4137 13.942C77.4154 13.9476 77.4154 13.9536 77.4137 13.9592V13.9695C77.4137 13.9695 77.4137 13.985 77.4137 13.9902C77.4137 13.9954 77.4338 13.9902 77.4372 14.016C77.4393 14.0204 77.4427 14.0239 77.447 14.0261C77.4512 14.0283 77.456 14.029 77.4607 14.0281C77.4489 14.0281 77.4389 14.047 77.4439 14.0505C77.4555 14.0594 77.4638 14.0722 77.4674 14.0867L77.5311 14.1573C77.5304 14.1592 77.53 14.1612 77.53 14.1633C77.53 14.1654 77.5304 14.1674 77.5311 14.1693C77.5311 14.1693 77.5311 14.1797 77.5462 14.1797C77.5439 14.1835 77.5426 14.188 77.5426 14.1926C77.5426 14.1972 77.5439 14.2016 77.5462 14.2055C77.5462 14.2193 77.5681 14.2193 77.5815 14.2055C77.5967 14.2572 77.6152 14.3079 77.6368 14.3571C77.6306 14.3612 77.6257 14.3673 77.623 14.3744C77.6203 14.3815 77.6199 14.3893 77.6217 14.3967V14.4139C77.6269 14.4224 77.6345 14.429 77.6436 14.4329C77.647 14.4346 77.6507 14.4354 77.6545 14.4354C77.6582 14.4354 77.662 14.4346 77.6654 14.4329C77.6581 14.4389 77.6533 14.4475 77.6519 14.457C77.6533 14.4808 77.659 14.5042 77.6687 14.5259H77.6905C77.6905 14.5259 77.6687 14.5707 77.6905 14.5793H77.7342C77.7308 14.5887 77.7308 14.5991 77.7342 14.6086C77.7342 14.6258 77.7593 14.6258 77.7778 14.6086L77.7979 14.5982L77.8147 14.6172C77.7895 14.6327 77.7593 14.6654 77.7778 14.6637H77.7895C77.7856 14.6679 77.7834 14.6734 77.7834 14.6792C77.7834 14.685 77.7856 14.6905 77.7895 14.6947C77.8063 14.6947 77.8197 14.7119 77.8348 14.7171C77.8331 14.7215 77.8331 14.7264 77.8348 14.7309C77.8363 14.7354 77.8393 14.7393 77.8433 14.7418C77.8473 14.7443 77.852 14.7453 77.8566 14.7446C77.8393 14.7557 77.823 14.7684 77.808 14.7825V14.8032C77.808 14.8032 77.808 14.8187 77.8231 14.8221C77.8382 14.8256 77.8449 14.8411 77.8566 14.8497C77.8621 14.8514 77.8679 14.8514 77.8734 14.8497C77.8734 14.8497 77.8583 14.8635 77.855 14.8704C77.8531 14.8723 77.8516 14.8746 77.8506 14.8771C77.8496 14.8796 77.849 14.8823 77.849 14.885C77.849 14.8877 77.8496 14.8904 77.8506 14.8929C77.8516 14.8955 77.8531 14.8977 77.855 14.8997C77.8576 14.9009 77.8604 14.9015 77.8633 14.9015C77.8662 14.9015 77.8691 14.9009 77.8717 14.8997C77.8829 14.8979 77.8942 14.8979 77.9053 14.8997H77.9204C77.9204 14.8997 77.8986 14.9255 77.9103 14.9341C77.9209 14.9433 77.9291 14.955 77.934 14.9682C77.939 14.9815 77.9407 14.9958 77.9388 15.0099C77.9388 15.0288 77.969 15.0237 77.9925 15.0099C77.9724 15.0202 77.9623 15.0392 77.9707 15.0564C77.9844 15.0762 77.9947 15.0984 78.0009 15.1219C78.0009 15.1425 78.0311 15.1442 78.0513 15.1356C78.0294 15.146 78.0093 15.1632 78.0143 15.177L78.0294 15.2252C78.0294 15.239 78.0613 15.2252 78.0815 15.2131C78.0837 15.2262 78.0889 15.2386 78.0966 15.2493C78.0926 15.2797 78.0967 15.3106 78.1083 15.3389C78.0848 15.3509 78.0647 15.3699 78.0747 15.3819C78.1085 15.4234 78.1264 15.4761 78.1251 15.5301C78.1251 15.5404 78.1251 15.5404 78.1502 15.5301H78.1939C78.1931 15.532 78.1927 15.534 78.1927 15.5361C78.1927 15.5382 78.1931 15.5402 78.1939 15.5421C78.1865 15.5435 78.1795 15.5465 78.1734 15.551C78.1673 15.5554 78.1623 15.5612 78.1586 15.568C78.1563 15.5839 78.1524 15.5994 78.1469 15.6145C78.1368 15.6455 78.1637 15.6524 78.1905 15.6455C78.1939 15.6637 78.2042 15.6798 78.219 15.6903H78.2308C78.2425 15.6903 78.2408 15.7023 78.2476 15.7092C78.2543 15.7161 78.2761 15.7092 78.2929 15.7092C78.2929 15.7092 78.2408 15.7385 78.2476 15.7557C78.2674 15.7559 78.2869 15.7512 78.3046 15.7419C78.3046 15.7419 78.3231 15.7282 78.3046 15.7419C78.285 15.7458 78.267 15.7554 78.2526 15.7695V15.7816C78.2526 15.7936 78.2526 15.8022 78.2526 15.8022C78.2506 15.8248 78.2565 15.8475 78.2694 15.866C78.2845 15.8849 78.3314 15.866 78.3449 15.8418C78.3441 15.8474 78.3448 15.853 78.3468 15.8581C78.3489 15.8633 78.3523 15.8678 78.3566 15.8711C78.3281 15.8711 78.2979 15.9073 78.308 15.9176C78.3204 15.9308 78.3302 15.9465 78.3365 15.9637C78.3428 15.9808 78.3457 15.9992 78.3449 16.0175C78.3449 16.0279 78.3566 16.0296 78.3717 16.0175C78.3842 16.0304 78.3949 16.0448 78.4036 16.0606H78.4137C78.4096 16.0639 78.4063 16.0681 78.4039 16.0728C78.4016 16.0776 78.4004 16.0828 78.4002 16.0882C78.3784 16.1312 78.4355 16.1278 78.4606 16.1054C78.4858 16.083 78.4606 16.1054 78.4606 16.1157C78.4338 16.1278 78.4019 16.1553 78.417 16.1657C78.4321 16.176 78.417 16.1657 78.4288 16.1657C78.4405 16.1657 78.4103 16.1846 78.412 16.1949V16.2208C78.412 16.2518 78.4774 16.2208 78.4892 16.2018C78.4946 16.2111 78.4991 16.2209 78.5026 16.2311C78.5026 16.2483 78.5194 16.269 78.5294 16.288C78.5203 16.293 78.5131 16.3009 78.5089 16.3106C78.5046 16.3202 78.5036 16.331 78.5059 16.3414C78.5059 16.3603 78.5345 16.3586 78.5529 16.3414C78.5395 16.3551 78.5345 16.3689 78.5445 16.3775C78.5652 16.3944 78.5813 16.4163 78.5915 16.4413H78.62C78.6285 16.4583 78.6386 16.4745 78.6502 16.4895C78.6267 16.5015 78.6083 16.5188 78.6167 16.5239C78.6292 16.5377 78.6405 16.5527 78.6502 16.5687C78.662 16.5842 78.6771 16.5687 78.6938 16.5687L78.7106 16.5946C78.6821 16.6083 78.662 16.6428 78.6905 16.6497C78.7096 16.6552 78.7262 16.6674 78.7375 16.6841C78.7441 16.689 78.752 16.6917 78.7601 16.6917C78.7682 16.6917 78.7762 16.689 78.7828 16.6841L78.7979 16.7031C78.7761 16.7169 78.7593 16.7427 78.7861 16.7496C78.8158 16.7581 78.8449 16.7685 78.8734 16.7806C78.8664 16.7806 78.8596 16.7824 78.8535 16.7857C78.8474 16.789 78.8421 16.7937 78.8381 16.7995C78.8281 16.8116 78.8214 16.8374 78.8381 16.8409H78.9304C78.9351 16.8532 78.939 16.8659 78.9422 16.8788C78.9422 16.8943 78.9623 16.8994 78.9774 16.896C78.9925 16.8925 78.9908 16.896 78.9908 16.896C78.9908 16.896 78.969 16.9184 78.9824 16.9218C79.0003 16.9228 79.0177 16.9282 79.0332 16.9374C79.0487 16.9467 79.0617 16.9597 79.0713 16.9752H79.1133C79.0999 16.9838 79.0915 16.9976 79.0999 17.0028L79.1452 17.0527C79.1552 17.0648 79.1854 17.0527 79.2072 17.0407C79.2026 17.0414 79.1982 17.0432 79.1944 17.0459C79.1905 17.0485 79.1873 17.0521 79.1849 17.0562C79.1825 17.0603 79.181 17.0649 79.1805 17.0696C79.18 17.0744 79.1805 17.0792 79.1821 17.0837C79.1839 17.0889 79.1875 17.0932 79.1921 17.0958C79.1921 17.0958 79.1821 17.113 79.1921 17.1165C79.2039 17.1213 79.2147 17.1283 79.224 17.1371C79.224 17.1371 79.2156 17.1509 79.224 17.1595C79.2056 17.1595 79.1888 17.1836 79.1955 17.194C79.2022 17.2043 79.2559 17.1681 79.266 17.1802C79.2442 17.1905 79.2307 17.2043 79.2425 17.2146C79.2548 17.2254 79.2636 17.2399 79.2676 17.256C79.2676 17.268 79.2895 17.268 79.3079 17.256C79.2861 17.268 79.2693 17.2818 79.2777 17.2835C79.2916 17.2899 79.3063 17.2946 79.3213 17.2973C79.3395 17.2956 79.3571 17.2903 79.3733 17.2818H79.3834C79.3826 17.2837 79.3822 17.2858 79.3822 17.2878C79.3822 17.2899 79.3826 17.292 79.3834 17.2939C79.3616 17.3059 79.3448 17.3232 79.3515 17.3283C79.3604 17.3411 79.3661 17.3559 79.3683 17.3714C79.3817 17.3886 79.4589 17.3524 79.4488 17.3352H79.479L79.469 17.3559C79.4522 17.3679 79.4388 17.38 79.4488 17.3869C79.4589 17.3938 79.4488 17.3869 79.4388 17.3869C79.4287 17.3869 79.4186 17.4127 79.4388 17.4179C79.4592 17.4177 79.4791 17.4111 79.4958 17.3989C79.5076 17.3989 79.4757 17.4489 79.4958 17.4472H79.5361C79.5361 17.4644 79.5478 17.4799 79.578 17.4747C79.5932 17.4812 79.6073 17.4899 79.62 17.5006C79.5998 17.5195 79.5831 17.5454 79.5931 17.554C79.6137 17.5661 79.6334 17.58 79.6519 17.5953C79.6611 17.5958 79.6703 17.594 79.6788 17.5901C79.6873 17.5862 79.6947 17.5803 79.7005 17.5729L79.7324 17.6005C79.7022 17.6263 79.6804 17.6745 79.7324 17.6763C79.7593 17.6782 79.785 17.6884 79.8062 17.7055C79.8243 17.7074 79.8424 17.7018 79.8565 17.69L79.8834 17.7073C79.8599 17.7331 79.8465 17.7693 79.8834 17.771C79.9228 17.7721 79.9621 17.7767 80.0008 17.7848L80.0126 17.7693C80.1262 17.8296 80.2543 17.8553 80.3817 17.8433C80.6031 17.7486 80.6535 17.4988 80.7726 17.2784C80.862 17.1042 80.9916 16.9552 81.1501 16.8443C81.234 16.784 81.3179 16.6858 81.3279 16.6841C81.3481 16.6821 81.3667 16.6723 81.38 16.6566C81.38 16.6566 81.4034 16.6325 81.38 16.6359C81.3745 16.6309 81.3682 16.6268 81.3615 16.6238C81.4003 16.6094 81.4337 16.5829 81.4571 16.548C81.4571 16.548 81.4655 16.5257 81.4722 16.5119C81.4789 16.4981 81.4873 16.4878 81.4722 16.4843C81.4571 16.4809 81.4722 16.4843 81.4806 16.4843C81.4893 16.4878 81.4988 16.4878 81.5075 16.4843C81.5528 16.4843 81.6014 16.0675 81.6199 16.0279C81.6217 16.0287 81.6237 16.0291 81.6258 16.0291C81.6278 16.0291 81.6298 16.0287 81.6316 16.0279C81.6525 16.0171 81.6712 16.0025 81.687 15.9848C81.7155 15.9417 81.6551 15.9452 81.6299 15.971V16.1657L81.645 16.1553L81.6652 16.145C81.692 16.145 81.7222 16.1037 81.7088 16.0864C81.7278 16.0576 81.7399 16.0245 81.744 15.99C81.7675 15.99 81.8095 15.9538 81.7994 15.9314C81.7893 15.909 81.7726 15.9142 81.7558 15.9194C81.7634 15.913 81.7719 15.9077 81.7809 15.9039C81.7991 15.8941 81.8151 15.8806 81.8279 15.8642C81.8564 15.8642 81.885 15.8332 81.8749 15.8126C81.8733 15.8064 81.8733 15.7998 81.8749 15.7936C81.8749 15.7781 81.8531 15.7764 81.838 15.7798L81.8564 15.7695C81.8682 15.7695 81.9571 15.6972 81.9252 15.6834C81.9055 15.6781 81.8887 15.6651 81.8783 15.6472H81.885C81.9031 15.6455 81.9208 15.6402 81.937 15.6317C81.9552 15.6253 81.9706 15.6125 81.9806 15.5955L82.0041 15.6093C82.0645 15.6386 82.187 15.5284 82.1266 15.4905C82.1443 15.4783 82.1587 15.4617 82.1685 15.4422C82.1718 15.4229 82.1718 15.403 82.1685 15.3837C82.1685 15.3837 82.1685 15.3682 82.1584 15.3664C82.1907 15.3526 82.2194 15.3314 82.2423 15.3044C82.2508 15.2975 82.2577 15.2886 82.2625 15.2786C82.2967 15.2128 82.3243 15.1435 82.3447 15.0719C82.3883 15.053 82.4235 15.0133 82.4101 14.9789C82.4075 14.9714 82.4035 14.9645 82.3984 14.9586C82.3932 14.9527 82.3869 14.9479 82.3799 14.9444V14.9255C82.395 14.8983 82.4136 14.8734 82.4353 14.8514C82.4386 14.7887 82.4352 14.7257 82.4252 14.6637C82.437 14.6482 82.4453 14.6344 82.4403 14.6223C82.437 14.6041 82.437 14.5854 82.4403 14.5672C82.4568 14.5654 82.4731 14.562 82.489 14.5569C82.5309 14.5569 82.546 14.5569 82.5594 14.5156C82.5729 14.4742 82.5594 14.469 82.5427 14.4639C82.5611 14.4467 82.5729 14.4294 82.5678 14.4156L82.5812 14.271C82.5895 14.2632 82.5958 14.2535 82.5996 14.2427C82.6034 14.2319 82.6046 14.2203 82.6031 14.209C82.6031 14.1986 82.6198 14.159 82.6165 14.1452C82.6094 14.1351 82.5996 14.1274 82.5882 14.1231C82.5768 14.1188 82.5645 14.1181 82.5527 14.1211C82.5259 14.1211 82.5527 14.097 82.5527 14.0832C82.5527 14.0694 82.5712 14.0557 82.5678 14.0453C82.5622 14.0376 82.5592 14.0282 82.5592 14.0186C82.5592 14.009 82.5622 13.9996 82.5678 13.9919C82.588 13.9678 82.5678 13.954 82.5494 13.9592C82.5659 13.9488 82.5791 13.9336 82.5872 13.9155C82.5952 13.8974 82.5978 13.8772 82.5947 13.8576C82.592 13.8506 82.587 13.8448 82.5805 13.8413C82.574 13.8378 82.5665 13.8369 82.5594 13.8386C82.5672 13.8302 82.5731 13.8201 82.5766 13.8091C82.58 13.7981 82.5811 13.7864 82.5796 13.7749C82.5796 13.7542 82.5628 13.737 82.5561 13.7181C82.5551 13.7144 82.5534 13.711 82.5511 13.708C82.5488 13.705 82.5459 13.7026 82.5427 13.7008C82.546 13.6387 82.5392 13.5764 82.5225 13.5165C82.5283 13.511 82.5324 13.5038 82.5343 13.4959V13.4786C82.5408 13.4713 82.5464 13.4632 82.551 13.4545C82.5628 13.4076 82.5628 13.3584 82.551 13.3116C82.5495 13.3106 82.5478 13.3102 82.546 13.3102C82.5442 13.3102 82.5425 13.3106 82.541 13.3116L82.5527 13.2961C82.5695 13.2754 82.5443 13.2719 82.5276 13.2754C82.5274 13.2663 82.5238 13.2576 82.5175 13.2513C82.4763 13.2126 82.4436 13.1655 82.4213 13.1129C82.399 13.0604 82.3878 13.0037 82.3883 12.9464C82.3883 12.9188 82.3564 12.9137 82.3245 12.9257C82.2986 12.8824 82.2657 12.844 82.2272 12.812L82.1937 12.781C82.2172 12.7621 82.2339 12.7414 82.2272 12.7242C82.2181 12.7033 82.2056 12.684 82.1903 12.6674C82.1769 12.6501 82.1383 12.657 82.1064 12.6777L82.0527 12.5812C82.0621 12.5751 82.07 12.567 82.0761 12.5575C82.0821 12.548 82.0862 12.5373 82.088 12.5261H82.0964L82.0829 12.5158V12.4917C82.0829 12.4917 82.0678 12.4796 82.0527 12.4813C82.0341 12.4639 82.0138 12.4484 81.9923 12.4348C81.994 12.4292 81.994 12.4232 81.9923 12.4176V12.4073C82.0259 12.3849 82.0175 12.347 81.9923 12.347C82.0019 12.3432 82.0101 12.3366 82.0158 12.328C82.0158 12.3108 82.0259 12.297 82.0276 12.2815C82.0315 12.28 82.035 12.2775 82.0376 12.2742C82.0403 12.2708 82.042 12.2668 82.0427 12.2626V12.2402H82.0192C82.0192 12.2402 82.0293 12.2299 82.0293 12.2264V12.1937V12.1747L82.0125 12.1558C82.0091 12.1541 82.0053 12.1532 82.0016 12.1532C81.9978 12.1532 81.9941 12.1541 81.9907 12.1558C81.9841 12.1466 81.9785 12.1368 81.9739 12.1265C81.9739 12.1007 81.9353 12.1041 81.9135 12.1265C81.895 12.0852 81.8799 12.0473 81.8648 12.0111C81.8497 11.9749 81.838 12.0111 81.8128 12.0111L81.7793 11.968H81.7709C81.7709 11.968 81.796 11.9198 81.7608 11.9095L81.7189 11.8923C81.7323 11.8802 81.7373 11.8699 81.7323 11.8561C81.7236 11.8432 81.7121 11.8326 81.6987 11.8251H81.6702C81.6585 11.8251 81.6702 11.8251 81.6702 11.8147C81.6702 11.8044 81.6987 11.7872 81.687 11.7734C81.6796 11.7592 81.6706 11.7459 81.6601 11.7338V11.7148C81.6601 11.7148 81.6601 11.7613 81.6601 11.7596C81.6601 11.7579 81.6601 11.7596 81.6601 11.7476L81.6467 11.7269C81.6467 11.7269 81.6467 11.7166 81.6283 11.7166C81.622 11.708 81.6179 11.6979 81.6165 11.6873C81.617 11.6853 81.6171 11.6833 81.6168 11.6813C81.6164 11.6794 81.6157 11.6775 81.6145 11.6759C81.6134 11.6742 81.612 11.6729 81.6103 11.6719C81.6086 11.6709 81.6067 11.6702 81.6048 11.6701V11.639C81.6048 11.639 81.593 11.639 81.5779 11.639C81.5832 11.6354 81.5878 11.6307 81.5914 11.6253C81.5897 11.615 81.5897 11.6045 81.5914 11.5943H81.583C81.5846 11.5914 81.5854 11.5881 81.5854 11.5848C81.5854 11.5815 81.5846 11.5782 81.583 11.5753C81.583 11.5753 81.5494 11.515 81.5377 11.515C81.5353 11.5115 81.532 11.5086 81.5281 11.5068C81.5243 11.505 81.5201 11.5042 81.5159 11.5047C81.5083 11.4972 81.5031 11.4876 81.5008 11.4771C81.5008 11.4496 81.4605 11.4513 81.437 11.4651C81.4135 11.4789 81.437 11.4479 81.4253 11.4375C81.4271 11.4332 81.4272 11.4283 81.4256 11.4238C81.4241 11.4193 81.421 11.4156 81.4169 11.4134C81.4169 11.391 81.3984 11.3703 81.3934 11.3497C81.3883 11.329 81.3934 11.3497 81.3816 11.3497C81.3768 11.3387 81.3693 11.3292 81.3598 11.3221H81.333V11.3101C81.3369 11.3095 81.3407 11.308 81.3441 11.3058C81.3475 11.3036 81.3503 11.3007 81.3526 11.2973C81.3548 11.2939 81.3563 11.2901 81.3569 11.286C81.3576 11.282 81.3575 11.2779 81.3565 11.2739C81.3565 11.2584 81.3397 11.2446 81.333 11.2291C81.3263 11.2136 81.333 11.2153 81.333 11.2136C81.3098 11.1915 81.2912 11.1649 81.2783 11.1353C81.2653 11.1057 81.2582 11.0738 81.2575 11.0414C81.2575 11.0138 81.2071 11.0414 81.2021 11.0517C81.2055 11.0375 81.2055 11.0228 81.2021 11.0086C81.2323 10.988 81.2424 10.9483 81.2575 10.9328C81.3028 10.8794 81.2759 10.8794 81.2575 10.8519C81.239 10.8243 81.3179 10.7537 81.3179 10.7537C81.3125 10.7361 81.3018 10.7208 81.2873 10.71C81.2728 10.6991 81.2553 10.6933 81.2373 10.6934C81.244 10.6692 81.244 10.6436 81.2373 10.6194H81.2273C81.2295 10.6178 81.2321 10.617 81.2348 10.617C81.2375 10.617 81.2402 10.6178 81.2424 10.6194C81.2793 10.6194 81.2994 10.566 81.2424 10.5711H81.2139C81.2223 10.5695 81.2304 10.566 81.2373 10.5608C81.2443 10.5609 81.2511 10.5591 81.257 10.5554C81.2629 10.5517 81.2678 10.5464 81.2709 10.5401C81.281 10.5196 81.2928 10.5 81.3061 10.4816H81.3145C81.3145 10.4712 81.3145 10.4661 81.3061 10.4661C81.3029 10.462 81.2988 10.4588 81.2941 10.4567C81.2895 10.4546 81.2844 10.4537 81.2793 10.454C81.283 10.4501 81.2859 10.4454 81.2877 10.4402C81.2877 10.4282 81.2877 10.423 81.2793 10.4195C81.2994 10.4195 81.3179 10.4023 81.3162 10.3954C81.3161 10.3853 81.3125 10.3756 81.3061 10.3679C81.2961 10.3575 81.3179 10.3575 81.3179 10.3507V10.3093C81.3179 10.2938 81.3045 10.2886 81.291 10.2886V10.2507H81.2524C81.2517 10.2416 81.2517 10.2324 81.2524 10.2232C81.2524 10.1991 81.2021 10.2008 81.1669 10.2232C81.185 10.2157 81.2011 10.2039 81.2139 10.1887C81.2222 10.175 81.2004 10.1715 81.1954 10.1732C81.1815 10.1736 81.168 10.1784 81.1568 10.187H81.1451C81.1523 10.1873 81.1593 10.185 81.1651 10.1807C81.1709 10.1763 81.1751 10.17 81.1769 10.1629V10.1526C81.1769 10.1526 81.2155 10.125 81.1988 10.1112C81.1885 10.1002 81.1766 10.0909 81.1635 10.0837C81.1586 10.0811 81.1531 10.0798 81.1476 10.0798C81.142 10.0798 81.1366 10.0811 81.1316 10.0837C81.1316 10.0733 81.1115 10.0716 81.0998 10.0837C81.086 10.0756 81.0714 10.0692 81.0561 10.0647H81.0276C81.041 10.0527 81.0494 10.0337 81.0276 10.0234C81.0114 10.0147 80.9946 10.0072 80.9773 10.001H80.9874C81.0008 9.98377 80.9655 9.98721 80.9572 9.98377C80.9488 9.98032 80.9572 9.97171 80.9454 9.96654L80.9102 9.9476C80.9001 9.9476 80.9236 9.90626 80.9102 9.88559C80.9053 9.87902 80.899 9.87372 80.8917 9.87009H80.8649C80.8649 9.87009 80.885 9.83391 80.8783 9.81497C80.8716 9.79602 80.8649 9.81497 80.8598 9.79947C80.8548 9.78396 80.8598 9.78224 80.8598 9.77363C80.8598 9.76502 80.8515 9.77363 80.8464 9.77363C80.8414 9.77363 80.8464 9.74951 80.838 9.74607H80.8263C80.8119 9.72556 80.7956 9.70652 80.7776 9.68923H80.7676V9.67545C80.7627 9.66724 80.755 9.66114 80.7461 9.65828C80.7371 9.65543 80.7275 9.65602 80.7189 9.65995H80.7105C80.701 9.66365 80.6924 9.66954 80.6854 9.67717C80.6566 9.62581 80.6216 9.57836 80.5813 9.53593C80.5612 9.51526 80.5377 9.52043 80.5125 9.53593V9.51698C80.5394 9.49976 80.5578 9.47048 80.5444 9.44808C80.5374 9.43827 80.5323 9.42716 80.5293 9.41536L80.5176 9.4033C80.5154 9.39412 80.5108 9.38576 80.5042 9.37919C80.5344 9.35507 80.5612 9.32407 80.5478 9.28617C80.5344 9.24828 80.5243 9.27412 80.5042 9.28617C80.5028 9.25602 80.4989 9.22605 80.4924 9.19661C80.5006 9.1849 80.5058 9.17128 80.5075 9.15699C80.518 9.14187 80.5238 9.12387 80.5243 9.10532C80.5243 9.08809 80.5243 9.05364 80.5411 9.04675C80.5578 9.03986 80.5679 9.04675 80.5813 9.04675C80.5967 9.04089 80.6104 9.03145 80.6216 9.01919V8.99852C80.6249 8.99414 80.6272 8.98913 80.6286 8.98379C80.6299 8.97845 80.6302 8.97288 80.6294 8.96743C80.6287 8.96197 80.6268 8.95673 80.624 8.95201C80.6212 8.94729 80.6176 8.9432 80.6132 8.93996C80.5964 8.92824 80.5807 8.91498 80.5662 8.90034C80.5655 8.89844 80.565 8.89639 80.565 8.89431C80.565 8.89224 80.5655 8.89019 80.5662 8.88829V8.86073C80.5662 8.86073 80.5427 8.76771 80.5427 8.7591C80.5373 8.74278 80.5299 8.72718 80.5209 8.7126C80.499 8.68879 80.4728 8.6695 80.4438 8.65575H80.432C80.3995 8.51726 80.3487 8.38398 80.281 8.25959C80.2731 8.24763 80.2611 8.2392 80.2474 8.236C80.2337 8.2328 80.2193 8.23508 80.2072 8.24237C80.1933 8.23978 80.1791 8.23978 80.1652 8.24237C80.1526 8.23893 80.1393 8.23893 80.1267 8.24237C80.1267 8.24237 80.1418 8.22686 80.1418 8.21825C80.1418 8.17863 80.0998 8.17863 80.0646 8.18552L80.0243 8.14763C80.0025 8.07873 79.969 8.01845 79.9455 7.95299C79.9471 7.94389 79.9471 7.93454 79.9455 7.92543C79.947 7.90646 79.9436 7.88741 79.9354 7.87031C79.9273 7.8601 79.9165 7.85243 79.9044 7.84817C79.8922 7.84391 79.8791 7.84322 79.8666 7.8462C79.8658 7.83623 79.8623 7.82668 79.8565 7.81864C79.8644 7.78767 79.8689 7.7559 79.87 7.72391C79.87 7.71357 79.8498 7.71357 79.823 7.72391C79.8158 7.70194 79.8068 7.68062 79.7961 7.66017C79.7847 7.63823 79.7712 7.61746 79.7559 7.59817C79.7458 7.57039 79.7391 7.54147 79.7357 7.51204C79.7357 7.49999 79.7005 7.50171 79.6686 7.51204C79.6686 7.51204 79.6686 7.50171 79.6519 7.49482C79.5807 7.41937 79.5019 7.35182 79.417 7.29329C79.4086 7.28737 79.3986 7.28419 79.3884 7.28419C79.3783 7.28419 79.3683 7.28737 79.3599 7.29329C79.3599 7.28296 79.3331 7.29329 79.3029 7.29329C79.2899 7.26931 79.2753 7.24629 79.2593 7.22439C79.2441 7.19934 79.2254 7.17671 79.2039 7.15722C79.1921 7.12794 79.1804 7.09865 79.1703 7.06593C79.1618 7.05322 79.1496 7.04357 79.1355 7.03832C79.1213 7.03307 79.106 7.03248 79.0915 7.03665C79.0814 7.03665 79.0747 7.01081 79.0663 7.00392C79.0579 6.99703 78.9891 6.94708 78.9623 6.95913C78.9354 6.97119 78.8734 6.94191 78.8197 6.9333C78.766 6.92469 78.7391 6.9333 78.7358 6.95569H78.7207C78.7229 6.9535 78.7245 6.95074 78.7252 6.9477C78.726 6.94466 78.726 6.94146 78.7251 6.93844C78.7243 6.93543 78.7226 6.93271 78.7203 6.93059C78.7181 6.92847 78.7153 6.92702 78.7123 6.92641C78.695 6.92426 78.678 6.91962 78.662 6.91263C78.6385 6.90229 78.568 6.94019 78.5965 6.95569H78.5764C78.5764 6.95569 78.5898 6.94191 78.5764 6.93158C78.5834 6.92215 78.5881 6.91106 78.5898 6.89931C78.5916 6.88757 78.5904 6.87556 78.5865 6.8644C78.5781 6.83684 78.4975 6.8644 78.5043 6.89368L78.4942 6.91091C78.469 6.91091 78.4036 6.95397 78.4606 6.9488H78.4808C78.48 6.95446 78.481 6.96024 78.4837 6.96523C78.4865 6.97022 78.4907 6.97413 78.4959 6.97636L78.4841 6.98842C78.4791 6.99497 78.4757 7.00264 78.4741 7.01081C78.4618 7.01172 78.45 7.01628 78.4402 7.02392C78.4303 7.03156 78.4229 7.04197 78.4187 7.05387C78.4187 7.06765 78.4187 7.07109 78.4489 7.06765C78.4452 7.08168 78.4407 7.09548 78.4355 7.10899C78.4271 7.10751 78.4186 7.10751 78.4103 7.10899C78.3851 7.10899 78.3482 7.12277 78.3482 7.14172V7.17272C78.3483 7.18605 78.3531 7.1989 78.3616 7.20889C78.3555 7.2093 78.3498 7.21197 78.3455 7.2164C78.3411 7.22084 78.3385 7.22674 78.3382 7.23301C78.3382 7.24334 78.3382 7.24679 78.3566 7.25023C78.3475 7.25245 78.3389 7.25655 78.3314 7.26229C78.3224 7.26226 78.3135 7.26483 78.3058 7.2697C78.2981 7.27457 78.2919 7.28154 78.2878 7.28985C78.2735 7.29142 78.2594 7.2949 78.2459 7.30018L78.2257 7.31224C78.214 7.31224 78.1922 7.33463 78.2073 7.34841C78.2122 7.35098 78.2177 7.35232 78.2232 7.35232C78.2288 7.35232 78.2342 7.35098 78.2392 7.34841V7.35874C78.2349 7.36376 78.2326 7.37018 78.2326 7.37683C78.2326 7.38348 78.2349 7.3899 78.2392 7.39492H78.2492C78.2601 7.39821 78.2717 7.39867 78.2828 7.39627C78.2939 7.39386 78.3043 7.38866 78.313 7.38114C78.3063 7.39357 78.299 7.40565 78.2912 7.41731C78.2811 7.41769 78.2712 7.42036 78.2622 7.42513C78.2532 7.42989 78.2453 7.43663 78.2392 7.44487C78.231 7.4493 78.224 7.45582 78.219 7.46381H78.2106C78.2106 7.46381 78.1737 7.49137 78.1855 7.50171C78.1807 7.50275 78.1763 7.5053 78.173 7.50901C78.1697 7.51271 78.1676 7.51739 78.167 7.52238C78.1654 7.52858 78.1654 7.53512 78.167 7.54133C78.167 7.55855 78.1888 7.56199 78.209 7.55683L78.1754 7.61884C78.1678 7.61907 78.1606 7.62192 78.1548 7.62692C78.149 7.63192 78.145 7.63879 78.1435 7.6464C78.139 7.6529 78.1351 7.65982 78.1318 7.66706V7.68084C78.1335 7.69687 78.1335 7.71305 78.1318 7.72907C78.1204 7.74422 78.1081 7.7586 78.0949 7.77213H78.0764C78.058 7.77213 78.0647 7.84103 78.0529 7.85998C78.0392 7.88579 78.0229 7.91004 78.0043 7.93232C78.006 7.94432 78.006 7.9565 78.0043 7.96849C78.0079 7.99767 78.0007 8.02719 77.9841 8.05117C77.959 8.07873 77.8986 8.10457 77.9019 8.15452C77.8868 8.16658 77.9137 8.17174 77.9254 8.17174C77.9006 8.20126 77.8777 8.23232 77.8566 8.26476C77.8371 8.26798 77.8183 8.27499 77.8013 8.28543C77.799 8.28543 77.7969 8.28633 77.7953 8.28795C77.7938 8.28956 77.7929 8.29175 77.7929 8.29404C77.7929 8.29632 77.7938 8.29851 77.7953 8.30013C77.7969 8.30174 77.799 8.30265 77.8013 8.30265H77.8264C77.8215 8.30953 77.8176 8.31706 77.8147 8.32504C77.8032 8.3271 77.7923 8.33181 77.7828 8.33882C77.7576 8.35088 77.7442 8.37499 77.7627 8.38533C77.7627 8.38533 77.7191 8.41117 77.7425 8.39911C77.766 8.38705 77.7056 8.41633 77.7191 8.42322C77.7325 8.43011 77.7593 8.42322 77.7727 8.42322C77.7862 8.42322 77.7727 8.42322 77.7727 8.437C77.7459 8.437 77.7123 8.4525 77.7123 8.47317V8.48351C77.7123 8.49901 77.7258 8.5059 77.7409 8.50762C77.694 8.6336 77.6652 8.76588 77.6553 8.90034C77.6446 8.90258 77.6351 8.9087 77.6285 8.91757C77.6184 8.93193 77.6115 8.9484 77.6083 8.9658C77.6083 8.97958 77.6083 8.98819 77.6201 8.98991C77.6164 8.99229 77.6134 8.9956 77.6113 8.99952C77.6093 9.00344 77.6082 9.00785 77.6083 9.0123V9.06225C77.6083 9.07776 77.6201 9.08292 77.6352 9.08292C77.6503 9.08292 77.6352 9.12254 77.6352 9.14149C77.6352 9.16043 77.5865 9.15871 77.5865 9.17594C77.5865 9.19661 77.6167 9.29134 77.6301 9.28962C77.6249 9.29208 77.6205 9.29594 77.6172 9.30079C77.614 9.30564 77.6121 9.31131 77.6117 9.31718V9.32751C77.6117 9.34301 77.6285 9.34818 77.6419 9.3499V9.38608C77.6452 9.41641 77.6452 9.44703 77.6419 9.47737C77.6217 9.47737 77.6016 9.49631 77.6033 9.51009V9.52904H77.6385C77.6368 9.54161 77.6368 9.55436 77.6385 9.56693C77.6306 9.5694 77.6236 9.57419 77.6184 9.58071C77.6117 9.5844 77.6059 9.58973 77.6016 9.59622C77.5915 9.59622 77.5815 9.61172 77.5815 9.62205V9.64444C77.5815 9.6565 77.5983 9.66167 77.6134 9.65995C77.6033 9.68545 77.5915 9.7102 77.5781 9.73401C77.5428 9.79444 77.5237 9.86337 77.5228 9.93382C77.505 9.93448 77.4876 9.93981 77.4724 9.94932C77.464 9.96138 77.4556 9.96827 77.4556 9.98377C77.4561 9.98672 77.457 9.98957 77.4585 9.99213C77.46 9.99469 77.462 9.99692 77.4643 9.99868C77.4667 10.0004 77.4694 10.0017 77.4722 10.0024C77.475 10.0031 77.4779 10.0032 77.4808 10.0027C77.4784 10.0027 77.4761 10.0035 77.4742 10.0051C77.4724 10.0067 77.4711 10.0089 77.4707 10.0113C77.4707 10.0113 77.3919 10.0113 77.3952 10.0406C77.3948 10.0454 77.3952 10.0502 77.3966 10.0547C77.398 10.0593 77.4002 10.0636 77.4031 10.0672C77.4061 10.0709 77.4097 10.074 77.4139 10.0762C77.418 10.0784 77.4225 10.0798 77.4271 10.0802C77.4381 10.0837 77.4497 10.0837 77.4607 10.0802V10.1061C77.4607 10.1061 77.4087 10.125 77.4087 10.1388C77.4058 10.1403 77.4034 10.1425 77.4016 10.1452C77.3999 10.1479 77.3988 10.151 77.3986 10.1543C77.397 10.168 77.397 10.1819 77.3986 10.1956H77.4389C77.4454 10.2026 77.4506 10.2108 77.454 10.2197C77.4507 10.2224 77.4481 10.2258 77.4464 10.2297C77.4446 10.2336 77.4438 10.2379 77.4439 10.2421C77.4437 10.2488 77.4454 10.2554 77.4486 10.2612C77.4519 10.2669 77.4566 10.2717 77.4624 10.2749C77.4569 10.2766 77.452 10.28 77.4484 10.2846C77.4448 10.2892 77.4426 10.2948 77.4422 10.3007C77.4405 10.3242 77.4405 10.3478 77.4422 10.3713C77.442 10.3743 77.4423 10.3772 77.4432 10.38C77.4441 10.3828 77.4455 10.3854 77.4474 10.3877C77.4493 10.3899 77.4516 10.3918 77.4541 10.3931C77.4567 10.3944 77.4595 10.3952 77.4624 10.3954C77.4536 10.3953 77.4451 10.3983 77.4384 10.404C77.4316 10.4097 77.427 10.4176 77.4254 10.4264V10.4454H77.4556C77.4707 10.4454 77.4556 10.4557 77.4556 10.4609C77.4504 10.4696 77.4442 10.4777 77.4372 10.485C77.4296 10.4952 77.4242 10.5069 77.4213 10.5193C77.4184 10.5318 77.4181 10.5448 77.4204 10.5573C77.4271 10.5938 77.4271 10.6312 77.4204 10.6676C77.4204 10.702 77.3785 10.7175 77.3718 10.7348C77.3633 10.771 77.3497 10.8059 77.3315 10.8381C77.3231 10.8519 77.3617 10.8467 77.365 10.8467C77.3667 10.8523 77.3667 10.8583 77.365 10.8639C77.3505 10.8654 77.3367 10.8708 77.3248 10.8794L77.3063 10.8967C77.3063 10.8967 77.2325 10.8967 77.2224 10.9139C77.2043 10.9546 77.1842 10.9942 77.162 11.0327C77.1469 11.0603 77.2275 11.0465 77.2409 11.0327H77.2996C77.2899 11.0424 77.2824 11.0542 77.2778 11.0672C77.256 11.0534 77.1838 11.0844 77.2057 11.1051C77.2138 11.1123 77.2211 11.1204 77.2275 11.1292C77.2275 11.1688 77.2275 11.1998 77.261 11.2136H77.2795C77.2795 11.2136 77.251 11.2325 77.251 11.2412C77.2484 11.2579 77.2421 11.2738 77.2325 11.2877V11.298C77.2325 11.298 77.2224 11.3083 77.2241 11.3118C77.2258 11.3152 77.2057 11.3428 77.2073 11.3428C77.2082 11.3514 77.2082 11.36 77.2073 11.3686C77.2011 11.3823 77.1933 11.395 77.1838 11.4065C77.189 11.4103 77.1951 11.4123 77.2015 11.4123C77.2078 11.4123 77.2139 11.4103 77.2191 11.4065C77.2201 11.4086 77.2215 11.4104 77.2233 11.4119C77.225 11.4134 77.227 11.4145 77.2291 11.4151C77.2291 11.4151 77.2442 11.4358 77.2291 11.441C77.2269 11.4413 77.2249 11.4422 77.223 11.4435C77.2212 11.4448 77.2196 11.4465 77.2185 11.4485C77.2174 11.4504 77.2167 11.4526 77.2165 11.4549C77.2163 11.4572 77.2166 11.4595 77.2174 11.4616C77.2277 11.4842 77.2356 11.5079 77.2409 11.5323H77.2627C77.2507 11.5365 77.2402 11.5443 77.2325 11.5546C77.214 11.565 77.1973 11.5788 77.214 11.5943C77.2308 11.6098 77.2409 11.6149 77.2359 11.6322C77.2224 11.6769 77.3046 11.6666 77.3147 11.6322L77.3265 11.6494C77.3281 11.6538 77.3281 11.6587 77.3265 11.6632H77.3046C77.2694 11.6632 77.2174 11.7097 77.2744 11.7131C77.2845 11.7131 77.2929 11.7286 77.2963 11.7338C77.2996 11.739 77.2963 11.7338 77.3097 11.7338C77.3371 11.7405 77.364 11.7492 77.3902 11.7596C77.4004 11.7683 77.407 11.7806 77.4087 11.7941C77.3986 11.7941 77.3986 11.8079 77.4087 11.813C77.4154 11.8157 77.4215 11.8202 77.4261 11.8259C77.4308 11.8316 77.4341 11.8384 77.4355 11.8457C77.4355 11.8647 77.4456 11.8561 77.459 11.8578C77.4456 11.8578 77.4322 11.8716 77.4372 11.8767C77.4488 11.8857 77.4571 11.8985 77.4607 11.9129C77.4607 11.9233 77.4875 11.9129 77.5077 11.9129C77.5094 11.9393 77.5163 11.9651 77.5278 11.9887H77.5228C77.5228 11.9887 77.506 12.0025 77.506 12.0094C77.5093 12.0194 77.5093 12.0303 77.506 12.0404C77.4926 12.0559 77.5177 12.0593 77.5278 12.0576H77.5395C77.5379 12.0638 77.5379 12.0703 77.5395 12.0766C77.5325 12.0765 77.5257 12.0791 77.5205 12.0839C77.5152 12.0886 77.5118 12.0952 77.511 12.1024H77.5043C77.4758 12.1231 77.4724 12.2746 77.4875 12.3056C77.4921 12.3102 77.4977 12.3136 77.5039 12.3154C77.51 12.3172 77.5165 12.3174 77.5228 12.316C77.4993 12.3263 77.4825 12.3401 77.4942 12.3504C77.5049 12.3575 77.5146 12.3662 77.5228 12.3763C77.5222 12.3814 77.5222 12.3866 77.5228 12.3918V12.4107C77.5127 12.4107 77.4993 12.4314 77.5026 12.4417C77.5043 12.4629 77.5043 12.4842 77.5026 12.5054H77.5228V12.5485C77.5228 12.5485 77.5093 12.5623 77.511 12.5709V12.5847C77.5009 12.6036 77.4926 12.6191 77.511 12.6226C77.5204 12.6209 77.5301 12.6209 77.5395 12.6226C77.5387 12.6245 77.5383 12.6265 77.5383 12.6286C77.5383 12.6307 77.5387 12.6327 77.5395 12.6346C77.5315 12.6377 77.5245 12.6431 77.5194 12.6501H77.5228C77.5179 12.6545 77.514 12.6598 77.511 12.6656C77.5092 12.6708 77.5064 12.6755 77.5026 12.6794C77.4972 12.6777 77.4913 12.6777 77.4858 12.6794C77.4694 12.6835 77.4543 12.692 77.4422 12.7041C77.4301 12.7163 77.4214 12.7315 77.4171 12.7483" fill="#44883D"/>
<path d="M90 12.4347C90.0014 12.4165 89.996 12.3985 89.9847 12.3844C89.9734 12.3702 89.9573 12.3611 89.9396 12.359C89.9366 12.301 89.9423 12.2429 89.9564 12.1867C89.9816 12.1764 89.9967 12.1626 89.9933 12.1574C89.9547 12.1043 89.9226 12.0464 89.8977 11.9852C89.8843 11.9525 89.8423 11.8698 89.8675 11.8319C89.8926 11.794 89.8557 11.8129 89.8289 11.8129C89.7981 11.6454 89.7757 11.4764 89.7618 11.3065C89.7786 11.2976 89.7926 11.2838 89.802 11.2669C89.8171 11.2325 89.8239 11.1929 89.839 11.1567C89.8406 11.1512 89.8401 11.1453 89.8376 11.1402C89.8351 11.135 89.8308 11.1311 89.8255 11.1291C89.8386 11.123 89.8488 11.1119 89.8541 11.0981V11.074C89.8666 11.0667 89.8774 11.0567 89.8859 11.0447C89.9143 10.983 89.9265 10.9147 89.9212 10.8466C89.9213 10.8435 89.9203 10.8404 89.9185 10.8379C89.9167 10.8354 89.9141 10.8336 89.9111 10.8329L89.9279 10.8139C89.9581 10.7898 89.9279 10.7777 89.8994 10.776C89.9028 10.7642 89.9028 10.7517 89.8994 10.7399C89.8108 10.6017 89.7749 10.4349 89.7987 10.2713C89.7987 10.23 89.7651 10.2162 89.7198 10.2179C89.6929 10.149 89.6579 10.0837 89.6158 10.0233C89.6009 10.0061 89.5875 9.98767 89.5755 9.96819C89.6158 9.95097 89.6427 9.92857 89.6376 9.90102C89.6324 9.86318 89.621 9.82651 89.6041 9.7925C89.5873 9.7615 89.5353 9.7615 89.4833 9.77355C89.4615 9.72188 89.4447 9.66848 89.4296 9.62025C89.4682 9.60303 89.495 9.57892 89.495 9.55136V9.49968C89.495 9.47212 89.448 9.46868 89.3977 9.47557C89.3951 9.43602 89.3889 9.39681 89.3792 9.35844C89.3809 9.35341 89.3809 9.34797 89.3792 9.34294C89.4363 9.32227 89.4313 9.26371 89.396 9.25509C89.4082 9.25028 89.4191 9.24261 89.4279 9.2327C89.4365 9.21277 89.4478 9.19421 89.4615 9.17758C89.4679 9.17622 89.4738 9.17284 89.4783 9.16791C89.4828 9.16297 89.4857 9.15672 89.4866 9.15002V9.12074H89.4497C89.4497 9.12074 89.4648 9.11041 89.4665 9.10352C89.4682 9.09663 89.4766 9.07424 89.4799 9.05873C89.4833 9.04323 89.4799 9.05873 89.4698 9.05873C89.4747 9.05623 89.4786 9.0522 89.481 9.04723C89.4834 9.04227 89.4842 9.03664 89.4833 9.03117C89.4833 9.02084 89.4698 9.0105 89.4665 9.00189C89.4636 8.9968 89.4595 8.99265 89.4544 8.9899C89.4494 8.98716 89.4437 8.98594 89.438 8.98639C89.431 8.97117 89.4264 8.95488 89.4245 8.93816C89.4245 8.89855 89.3759 8.89166 89.339 8.90716C89.3256 8.84343 89.3138 8.78142 89.3054 8.72458C89.3054 8.70219 89.2366 8.70563 89.1796 8.72458C89.1662 8.70391 89.1511 8.68496 89.136 8.66601C89.2014 8.64018 89.2517 8.5885 89.1913 8.55233C89.1686 8.53881 89.1468 8.52386 89.1259 8.50755C89.1312 8.50691 89.1363 8.5052 89.141 8.5025C89.1456 8.49981 89.1497 8.4962 89.153 8.49187C89.1563 8.48754 89.1587 8.48259 89.1601 8.47729C89.1615 8.472 89.1618 8.46648 89.1611 8.46104C89.1551 8.43941 89.1428 8.42018 89.1259 8.40592C89.1142 8.39756 89.0998 8.39389 89.0856 8.39559C89.0873 8.39304 89.0882 8.39004 89.0882 8.38698C89.0882 8.38391 89.0873 8.38091 89.0856 8.37836C89.1125 8.37836 89.1326 8.34908 89.1242 8.32497C89.1158 8.30085 89.084 8.23712 89.0655 8.19062C89.047 8.14411 89.0168 8.16133 88.9866 8.17339C88.9866 8.16133 88.9749 8.151 88.9715 8.13722C88.9682 8.12344 88.933 8.10794 88.8927 8.11138C88.8892 8.10395 88.884 8.09747 88.8776 8.09244C88.8587 8.08909 88.8394 8.08909 88.8205 8.09244C88.7966 8.06589 88.7714 8.04059 88.745 8.01665V7.9667L88.7333 7.95119C88.7534 7.94086 88.7669 7.92536 88.7534 7.91502C88.7308 7.8928 88.717 7.86271 88.7148 7.83062C88.7148 7.82029 88.7014 7.81512 88.6846 7.81512C88.6679 7.81512 88.6846 7.80651 88.6846 7.79962C88.6775 7.77513 88.6667 7.7519 88.6528 7.73072C88.631 7.70488 88.5622 7.72211 88.5454 7.75139C88.5402 7.73754 88.5369 7.72307 88.5353 7.70833C88.5475 7.70588 88.5594 7.70183 88.5706 7.69627C88.5857 7.68594 88.6041 7.65665 88.5706 7.64632C88.5622 7.64064 88.5553 7.63295 88.5504 7.62393C88.5449 7.61892 88.5387 7.61485 88.532 7.61187V7.58259C88.5622 7.58259 88.6041 7.56364 88.6058 7.53953V7.50852C88.6166 7.50451 88.6263 7.49803 88.6343 7.48958C88.6442 7.48108 88.6523 7.47057 88.6581 7.45872C88.6639 7.44686 88.6672 7.43391 88.6679 7.42068V7.39312C88.6687 7.39121 88.6691 7.38916 88.6691 7.38709C88.6691 7.38502 88.6687 7.38297 88.6679 7.38106C88.6813 7.37073 88.6679 7.35695 88.6679 7.3535C88.688 7.39312 88.7786 7.37073 88.7786 7.33111V7.26738C88.7784 7.26298 88.7773 7.25868 88.7752 7.25481C88.7732 7.25093 88.7703 7.24757 88.7669 7.24499C88.7903 7.23465 88.8071 7.21226 88.7903 7.18815L88.7652 7.16231C88.787 7.15197 88.8004 7.13647 88.7803 7.12786C88.7713 7.12094 88.7639 7.11213 88.7585 7.10202C88.7467 7.08997 88.7249 7.09169 88.7014 7.10202H88.688C88.7048 7.09341 88.7199 7.0848 88.7199 7.07102V7.03657C88.7199 7.02107 88.693 7.01935 88.6679 7.02624C88.6679 6.87121 88.7551 6.81265 88.782 6.64902C88.7823 6.6365 88.7786 6.62422 88.7712 6.6142C88.7639 6.60418 88.7535 6.59702 88.7417 6.5939C88.8205 6.57323 88.8205 6.51294 88.8038 6.43543C88.8034 6.43254 88.8019 6.4299 88.7998 6.428C88.7976 6.4261 88.7949 6.42507 88.792 6.4251C88.7954 6.42183 88.7999 6.42001 88.8046 6.42001C88.8093 6.42001 88.8138 6.42183 88.8172 6.4251C88.8776 6.4251 88.9061 6.33725 88.8289 6.34242C88.8123 6.33899 88.7952 6.33899 88.7786 6.34242C88.7924 6.33922 88.8055 6.33338 88.8172 6.3252C88.829 6.3258 88.8408 6.32326 88.8514 6.31783C88.8619 6.3124 88.871 6.30426 88.8776 6.29419C88.8911 6.25915 88.9092 6.22613 88.9313 6.19601H88.9447C88.9447 6.19601 88.9447 6.1719 88.9296 6.17018V6.15812C88.9296 6.14262 88.9128 6.13573 88.886 6.13573C88.886 6.13573 88.8977 6.12367 88.8977 6.11506C88.9013 6.11071 88.9032 6.10522 88.9032 6.09955C88.9032 6.09388 88.9013 6.0884 88.8977 6.08405C88.9296 6.07544 88.9598 6.05822 88.9564 6.0496C88.9469 6.03509 88.939 6.01948 88.933 6.0031C88.938 5.99973 88.9422 5.99514 88.9451 5.98973C88.948 5.98433 88.9496 5.97827 88.9497 5.97209V5.94281C88.9497 5.91353 88.9279 5.90319 88.9028 5.90319C88.8776 5.90319 88.8927 5.86013 88.8893 5.83774C88.886 5.81535 88.8575 5.82913 88.8256 5.83774C88.8232 5.82186 88.8193 5.80628 88.8138 5.79123C88.8138 5.7499 88.7299 5.7499 88.6695 5.77401V5.76195C88.6983 5.75326 88.7247 5.73794 88.7467 5.71717C88.7685 5.69822 88.7299 5.69133 88.7199 5.69133C88.6987 5.69193 88.6782 5.69914 88.6612 5.712C88.6546 5.71025 88.6476 5.71025 88.641 5.712H88.6276C88.6528 5.70339 88.6779 5.69305 88.6779 5.67411C88.6779 5.65516 88.6779 5.66377 88.6897 5.65688C88.7216 5.64655 88.7484 5.61554 88.7216 5.59143C88.6947 5.56732 88.6813 5.56215 88.6628 5.54492C88.6554 5.53981 88.6466 5.53709 88.6377 5.53709C88.6287 5.53709 88.6199 5.53981 88.6125 5.54492C88.6125 5.52942 88.5773 5.52598 88.5538 5.53287C88.5314 5.51692 88.5064 5.50525 88.48 5.49842H88.4296C88.4548 5.47775 88.4649 5.44674 88.4296 5.43124C88.4011 5.41931 88.3736 5.40491 88.3474 5.38818H88.3625C88.3625 5.38818 88.3457 5.36234 88.334 5.36234H88.3021C88.2902 5.31747 88.2721 5.27455 88.2484 5.23488H88.235C88.2257 5.112 88.176 4.99601 88.0941 4.90589C88.1259 4.88695 88.1478 4.86628 88.1327 4.85077C88.1019 4.81313 88.0744 4.77278 88.0504 4.7302C88.0453 4.72319 88.0383 4.71781 88.0303 4.7147C88.0335 4.70862 88.0352 4.70181 88.0352 4.69489C88.0352 4.68797 88.0335 4.68116 88.0303 4.67508C88.0186 4.64063 88.0068 4.60791 87.9934 4.5769C88.0152 4.56312 88.0286 4.54418 88.0068 4.52695C88.0253 4.51317 88.0421 4.49595 88.0286 4.47183C87.9933 4.40663 87.9433 4.35109 87.8827 4.30992C87.874 4.28384 87.8695 4.25651 87.8692 4.22897C87.8692 4.21495 87.8645 4.20135 87.856 4.1904C87.8475 4.17945 87.8356 4.1718 87.8223 4.16868V4.1549L87.8374 4.14112C87.8446 4.10237 87.8387 4.06224 87.8206 4.02744C87.8206 4.01366 87.7904 4.01366 87.7635 4.02744V3.91031C87.7665 3.88207 87.7744 3.85463 87.787 3.82936C87.787 3.8173 87.7736 3.81386 87.7602 3.81386C87.7657 3.81037 87.7701 3.80513 87.7725 3.79892C87.7749 3.79271 87.7753 3.78587 87.7736 3.77941C87.7671 3.75993 87.7632 3.73966 87.7619 3.71912C87.7673 3.70763 87.7712 3.69547 87.7736 3.68295C87.7746 3.67634 87.7731 3.6696 87.7693 3.66414C87.7655 3.65868 87.7599 3.65493 87.7535 3.65367C87.7519 3.6299 87.7485 3.60629 87.7434 3.58305C87.7434 3.56582 87.725 3.55893 87.7065 3.55893C87.698 3.52284 87.6862 3.48766 87.6713 3.45386C87.6495 3.4108 87.6344 3.42286 87.6461 3.3798C87.6562 3.34378 87.6562 3.30558 87.6461 3.26956C87.6313 3.2305 87.6087 3.19502 87.5798 3.16537C87.5509 3.13573 87.5164 3.11255 87.4783 3.09731H87.4582C87.3991 2.86426 87.3106 2.64015 87.1948 2.43072C87.1803 2.41375 87.1611 2.40181 87.1398 2.39656C87.1184 2.39131 87.096 2.39302 87.0757 2.40144C87.0533 2.39148 87.0295 2.38565 87.0052 2.38422C86.9858 2.38067 86.9659 2.38067 86.9465 2.38422L86.9196 2.36871C86.933 2.35838 86.9431 2.34632 86.9414 2.33426C86.9414 2.26709 86.8743 2.26364 86.8173 2.2757C86.7938 2.25139 86.772 2.22549 86.7518 2.19819C86.7133 2.08623 86.6579 1.98288 86.6159 1.87092C86.6239 1.85745 86.628 1.84191 86.6277 1.82614C86.6277 1.79341 86.6126 1.76413 86.6109 1.73313C86.6092 1.70212 86.5337 1.68318 86.4935 1.69007C86.4902 1.67346 86.4852 1.65728 86.4784 1.64184C86.4918 1.59014 86.4985 1.53687 86.4985 1.48337C86.4985 1.46787 86.4633 1.46442 86.4196 1.46959C86.406 1.4292 86.3892 1.39003 86.3693 1.35246C86.3515 1.3147 86.3283 1.27986 86.3005 1.24912C86.2859 1.20155 86.2736 1.15326 86.2636 1.10443C86.2636 1.08204 86.2083 1.08376 86.1546 1.10443C86.1546 1.0941 86.1361 1.08721 86.126 1.07515C86.0027 0.948875 85.8691 0.833627 85.7267 0.730658L85.6747 0.663483L85.6496 0.594584C85.6361 0.551523 85.5439 0.575637 85.5371 0.615254H85.517C85.5195 0.612991 85.5215 0.610208 85.5229 0.60709C85.5243 0.603971 85.525 0.600589 85.525 0.597168C85.525 0.593747 85.5243 0.590365 85.5229 0.587246C85.5215 0.584128 85.5195 0.581345 85.517 0.579082C85.5126 0.577742 85.508 0.577742 85.5036 0.579082C85.4812 0.57379 85.4597 0.565081 85.4398 0.553245C85.4046 0.536021 85.3106 0.582527 85.3476 0.608364H85.319C85.3245 0.604756 85.3289 0.599574 85.3316 0.593454C85.3343 0.587334 85.3352 0.580543 85.3341 0.573915L85.3257 0.522241C85.314 0.477457 85.2016 0.506739 85.2133 0.553245L85.1966 0.585972C85.1966 0.585972 85.1596 0.623866 85.1764 0.635923C85.1763 0.641485 85.1776 0.646979 85.1803 0.651828C85.1829 0.656677 85.1868 0.660702 85.1915 0.663483C85.1915 0.663483 85.1747 0.673817 85.1747 0.68243C85.1681 0.691223 85.163 0.70113 85.1596 0.711711C85.1594 0.714991 85.1581 0.718094 85.156 0.720571C85.1539 0.723049 85.151 0.724772 85.1479 0.725491C85.1306 0.726106 85.1138 0.732005 85.0998 0.742435C85.0857 0.752866 85.075 0.767355 85.069 0.784054C85.069 0.804724 85.0841 0.809891 85.111 0.808169C85.1026 0.825393 85.0976 0.847785 85.0875 0.868455H85.0556C85.0221 0.868455 84.9667 0.880512 84.9667 0.909794V0.973525C84.9667 0.989027 84.9801 0.999362 84.9986 1.00281C84.9905 1.00318 84.9829 1.00652 84.977 1.01221C84.9712 1.01791 84.9675 1.02557 84.9667 1.03381V1.04415C84.9667 1.06309 84.9768 1.06998 84.9919 1.07515C84.9791 1.07561 84.9671 1.08117 84.9583 1.09065C84.9583 1.12338 84.9583 1.15955 84.9348 1.16816C84.9226 1.17856 84.9142 1.19299 84.9111 1.20901C84.9081 1.22502 84.9105 1.24163 84.918 1.25601V1.26979C84.918 1.28701 84.8979 1.30424 84.8878 1.32318C84.8778 1.34213 84.8174 1.33869 84.8123 1.35763C84.7994 1.36286 84.7887 1.37263 84.7821 1.38519L84.7704 1.39553C84.7419 1.39553 84.7184 1.42998 84.7318 1.44203C84.7184 1.45237 84.7066 1.46098 84.7066 1.47476V1.50404C84.7066 1.52988 84.7335 1.53677 84.762 1.53332C84.7452 1.5626 84.7251 1.59016 84.71 1.61772C84.7 1.62033 84.6907 1.62505 84.6826 1.63157C84.6745 1.6381 84.6678 1.64629 84.663 1.65562L84.6479 1.6849V1.70729C84.64 1.71895 84.6328 1.73103 84.6261 1.74346L84.5707 1.8003H84.5573C84.5295 1.79997 84.5025 1.81042 84.4818 1.82959L84.4567 1.8692C84.4382 1.88815 84.4734 1.89676 84.4869 1.89676H84.4986C84.4618 1.93766 84.4281 1.98143 84.3979 2.02767C84.3706 2.0273 84.3438 2.03508 84.3208 2.05006C84.3023 2.06039 84.304 2.07245 84.3208 2.07245H84.3661L84.3459 2.10518C84.3304 2.10693 84.3155 2.11222 84.3023 2.12068C84.2671 2.13274 84.2503 2.17063 84.2704 2.18958C84.2657 2.19569 84.2631 2.20328 84.2631 2.21111C84.2631 2.21894 84.2657 2.22653 84.2704 2.23264L84.2604 2.25503C84.2268 2.25503 84.1781 2.26709 84.1781 2.29982V2.31532C84.1784 2.32052 84.1796 2.32563 84.1817 2.33035C84.1839 2.33508 84.1869 2.33932 84.1906 2.34284C84.1944 2.34636 84.1987 2.34909 84.2035 2.35087C84.2083 2.35265 84.2133 2.35344 84.2184 2.35321C84.1313 2.57197 84.0688 2.80025 84.0322 3.03358C84.0205 3.03689 84.0096 3.04276 84.0003 3.05081C83.9841 3.07261 83.9716 3.09707 83.9634 3.12315C83.9516 3.14554 83.9634 3.1576 83.9818 3.16104C83.9667 3.16966 83.96 3.17827 83.96 3.19205V3.22305C83.9584 3.22808 83.9584 3.23353 83.96 3.23855C83.9583 3.24299 83.9583 3.2479 83.96 3.25233C83.96 3.27473 83.9735 3.28334 83.9936 3.28851C84.0137 3.29367 83.9936 3.34535 83.9835 3.37118C83.9516 3.37118 83.9131 3.39185 83.9131 3.42114V3.43319C83.9131 3.46075 83.9365 3.46936 83.96 3.46936C83.9517 3.4726 83.9444 3.47821 83.9391 3.48553C83.9337 3.49285 83.9305 3.50158 83.9298 3.5107V3.52276C83.9296 3.52774 83.9303 3.53271 83.932 3.5374C83.9336 3.54208 83.9362 3.54639 83.9394 3.55007C83.9427 3.55375 83.9467 3.55673 83.9511 3.55884C83.9555 3.56095 83.9602 3.56216 83.9651 3.56238V3.61405C83.9684 3.65992 83.9684 3.70598 83.9651 3.75185C83.9365 3.75185 83.9063 3.77252 83.9063 3.79146V3.82247C83.9063 3.83452 83.9298 3.83797 83.9533 3.8328C83.9768 3.82763 83.9533 3.8707 83.9533 3.89137C83.9417 3.89353 83.9311 3.89959 83.9231 3.90859C83.9175 3.91123 83.9126 3.91504 83.9085 3.91979C83.9045 3.92454 83.9014 3.93012 83.8996 3.93615C83.8829 3.94476 83.8694 3.95682 83.8694 3.97232V4.0016C83.8694 4.02227 83.8845 4.02916 83.9097 4.03088C83.8946 4.06876 83.8761 4.10509 83.8543 4.1394C83.8026 4.22872 83.7737 4.33006 83.7704 4.43394C83.7587 4.43196 83.7467 4.43247 83.7352 4.43543C83.7236 4.43839 83.7128 4.44375 83.7033 4.45116C83.696 4.45713 83.6901 4.46473 83.686 4.47338C83.682 4.48203 83.6798 4.49151 83.6798 4.50112C83.6798 4.51834 83.6916 4.52867 83.7117 4.52867C83.7047 4.53102 83.6983 4.53517 83.6933 4.54073C83.6647 4.51489 83.5892 4.54073 83.5909 4.57518C83.5892 4.58898 83.5922 4.60298 83.5996 4.61466C83.607 4.62634 83.6182 4.63494 83.6312 4.63891C83.6453 4.64403 83.6607 4.64403 83.6748 4.63891V4.68025C83.6413 4.68025 83.606 4.70092 83.6027 4.71814C83.5993 4.73537 83.5892 4.73192 83.5892 4.74226V4.79738C83.5892 4.81116 83.6144 4.81288 83.6429 4.80599L83.6631 4.84388C83.6513 4.85422 83.6446 4.86283 83.648 4.87661C83.6473 4.88541 83.6484 4.89427 83.6513 4.90259C83.6542 4.9109 83.6588 4.91849 83.6647 4.92484C83.6583 4.92804 83.6527 4.93289 83.6486 4.93892C83.6445 4.94495 83.642 4.95196 83.6413 4.95929C83.6345 4.9946 83.6294 5.03024 83.6262 5.06608C83.6256 5.07443 83.628 5.0827 83.6329 5.08936C83.6379 5.09602 83.645 5.1006 83.653 5.10225C83.653 5.10225 83.653 5.11259 83.6664 5.11431C83.6542 5.11391 83.6423 5.11779 83.6325 5.12531C83.6228 5.13282 83.6158 5.14352 83.6127 5.15565V5.18665C83.6127 5.19699 83.6278 5.20043 83.6513 5.19699C83.653 5.20377 83.653 5.21088 83.6513 5.21766L83.6245 5.25211C83.6101 5.25368 83.596 5.25716 83.5825 5.26244C83.5584 5.27838 83.5373 5.29882 83.5205 5.32273C83.5037 5.3434 83.5305 5.35029 83.5456 5.35029C83.5249 5.37294 83.5074 5.39845 83.4936 5.42607C83.4718 5.43469 83.455 5.44847 83.455 5.46397V5.48636C83.4438 5.48705 83.4331 5.49172 83.4249 5.49957C83.4166 5.50742 83.4113 5.51797 83.4097 5.52942V5.56387V5.55526C83.3795 5.52425 83.2705 5.56904 83.304 5.60521C83.3263 5.62985 83.345 5.6577 83.3594 5.68789V5.70339C83.3309 5.70339 83.3007 5.72578 83.3007 5.74645V5.76195C83.3007 5.77573 83.3174 5.77918 83.3409 5.77746C83.3309 5.77746 83.3258 5.78779 83.3292 5.79123C83.3414 5.81438 83.3456 5.84112 83.3409 5.86702C83.3409 5.87736 83.3594 5.87736 83.3795 5.87736C83.3611 5.9385 83.3611 6.00396 83.3795 6.0651C83.3734 6.06902 83.3683 6.07432 83.3645 6.08059C83.3607 6.08686 83.3584 6.09394 83.3577 6.10128C83.363 6.14802 83.3726 6.19415 83.3862 6.23907C83.3946 6.25802 83.4164 6.26319 83.4416 6.25802V6.2718C83.4148 6.28213 83.3879 6.29764 83.3879 6.31831V6.34759V6.3717C83.3527 6.38204 83.3242 6.39582 83.3174 6.42682C83.3107 6.45782 83.3325 6.44405 83.3527 6.44232L83.3275 6.51294C83.3191 6.53534 83.2906 6.53534 83.2906 6.55428V6.64385C83.2906 6.65419 83.3023 6.65935 83.3158 6.65935C83.3175 6.66378 83.3175 6.6687 83.3158 6.67313C83.3158 6.69208 83.3426 6.69552 83.3678 6.69208C83.3342 6.69208 83.2889 6.70758 83.2889 6.72997V6.79198C83.2889 6.80232 83.3191 6.80232 83.3476 6.79198V6.80404C83.3476 6.8161 83.3023 6.82299 83.2973 6.84021C83.2923 6.85744 83.2453 6.8626 83.2487 6.8781C83.2559 6.90454 83.2579 6.93222 83.2544 6.95945C83.2509 6.98669 83.2421 7.01292 83.2285 7.03657C83.2151 7.05896 83.2688 7.05724 83.2738 7.05724H83.2872C83.2792 7.07047 83.2736 7.08505 83.2705 7.1003C83.2419 7.1003 83.2034 7.11408 83.2 7.13303C83.1852 7.18513 83.1662 7.23584 83.143 7.2846C83.1279 7.30355 83.1815 7.30011 83.1866 7.30011H83.2C83.2017 7.30921 83.2017 7.31856 83.2 7.32767C83.1804 7.32666 83.161 7.33209 83.1446 7.34317C83.1446 7.34317 83.1295 7.36211 83.1195 7.37073H83.1111C83.1245 7.34317 83.0138 7.3535 82.9953 7.38795C82.9769 7.4224 82.9467 7.5068 82.9165 7.5602C82.8863 7.61359 82.9987 7.58603 83.0171 7.5602C83.026 7.56192 83.0351 7.56192 83.044 7.5602C83.0306 7.57482 83.0198 7.59172 83.0121 7.61015C82.9836 7.58776 82.8846 7.62565 82.9148 7.65838C82.9228 7.67225 82.9317 7.68549 82.9416 7.69799C82.9265 7.75139 82.9282 7.79445 82.9819 7.81857H82.9987C83.0016 7.82495 83.0056 7.83078 83.0104 7.83579C83.0005 7.83646 82.9911 7.84057 82.9838 7.84747C82.9765 7.85436 82.9717 7.86361 82.9701 7.87368C82.9671 7.8973 82.9585 7.91978 82.945 7.93914C82.9433 7.94475 82.9433 7.95075 82.945 7.95636C82.9429 7.95615 82.9408 7.95651 82.9389 7.9574C82.937 7.9583 82.9354 7.95969 82.9342 7.96145C82.933 7.9632 82.9323 7.96525 82.9321 7.96738C82.9319 7.96952 82.9323 7.97166 82.9332 7.97359C82.9081 7.97359 82.8863 7.99253 82.8863 8.00976V8.04765C82.8779 8.0666 82.8678 8.08555 82.8577 8.10449C82.8477 8.12344 82.8728 8.12 82.8997 8.11655C82.8996 8.12058 82.9009 8.12451 82.9034 8.12766C82.9058 8.1308 82.9093 8.13297 82.9131 8.13377C82.9131 8.13377 82.9282 8.16478 82.9232 8.17339C82.9196 8.17382 82.9162 8.17496 82.9131 8.17675C82.91 8.17855 82.9073 8.18096 82.9051 8.18384C82.9029 8.18673 82.9013 8.19003 82.9004 8.19356C82.8994 8.19709 82.8992 8.20077 82.8997 8.2044C82.915 8.23748 82.9246 8.27302 82.9282 8.30947C82.9282 8.3198 82.9433 8.32152 82.9584 8.32152C82.9412 8.32717 82.9264 8.33873 82.9165 8.35425C82.8896 8.36631 82.8712 8.38698 82.8896 8.40937C82.9081 8.43176 82.9248 8.44554 82.9165 8.46965C82.8963 8.53338 83.0104 8.52649 83.0255 8.47999V8.47138C83.0255 8.47999 83.0356 8.49032 83.0406 8.50066V8.51961L83.0071 8.53166C82.9584 8.53166 82.8846 8.59712 82.9634 8.604C82.9769 8.604 82.9852 8.6264 82.992 8.63673C82.9959 8.64204 83.0011 8.6462 83.0071 8.64879C83.0032 8.65296 83.001 8.65851 83.001 8.66429C83.001 8.67007 83.0032 8.67562 83.0071 8.67979C83.0205 8.6937 83.0288 8.71197 83.0305 8.73147C83.0298 8.73338 83.0294 8.73542 83.0294 8.7375C83.0294 8.73957 83.0298 8.74162 83.0305 8.74352C83.0281 8.74546 83.0261 8.74794 83.0248 8.75077C83.0234 8.75361 83.0227 8.75673 83.0227 8.75989C83.0227 8.76305 83.0234 8.76617 83.0248 8.769C83.0261 8.77184 83.0281 8.77432 83.0305 8.77625C83.04 8.77869 83.0483 8.78458 83.0538 8.79282C83.0594 8.80105 83.0619 8.81108 83.0607 8.82104C83.0607 8.83482 83.0758 8.83998 83.0943 8.8417C83.0725 8.85204 83.0607 8.8641 83.0658 8.87271C83.0807 8.88756 83.0907 8.90684 83.0943 8.92783C83.0943 8.93988 83.1329 8.92783 83.1614 8.92783C83.1732 8.97089 83.1849 9.01223 83.1933 9.05529C83.1831 9.05557 83.1733 9.05951 83.1656 9.06644C83.158 9.07336 83.1529 9.08283 83.1513 9.09318C83.1535 9.10966 83.1493 9.12635 83.1396 9.13969C83.1279 9.15347 83.1564 9.16897 83.1715 9.16897C83.1847 9.1724 83.1985 9.1724 83.2117 9.16897C83.2101 9.17808 83.2101 9.18742 83.2117 9.19653C83.1815 9.19653 83.1463 9.21375 83.1463 9.23615C83.138 9.23771 83.1304 9.24193 83.1245 9.2482C83.1061 9.25716 83.0919 9.27324 83.0849 9.29293C83.078 9.31261 83.079 9.33431 83.0876 9.35327C83.0876 9.36705 83.1077 9.3705 83.1262 9.3705C83.101 9.38256 83.0742 9.40322 83.0909 9.42045C83.1062 9.43712 83.1203 9.45497 83.1329 9.47385C83.1329 9.4752 83.1332 9.47655 83.1337 9.4778C83.1342 9.47905 83.1349 9.48019 83.1358 9.48115C83.1368 9.48211 83.1379 9.48287 83.1391 9.48339C83.1403 9.48391 83.1416 9.48418 83.143 9.48418C83.1484 9.51189 83.1611 9.53752 83.1799 9.55825C83.1856 9.56337 83.1922 9.56723 83.1994 9.5696C83.2067 9.57197 83.2143 9.5728 83.2218 9.57203C83.2035 9.60634 83.1797 9.63721 83.1513 9.66332C83.1144 9.6926 83.1329 9.71154 83.1614 9.71843V9.7925C83.1329 9.7925 83.1111 9.81662 83.1144 9.8235V9.91824C83.1163 9.91904 83.1183 9.91946 83.1203 9.91946C83.1223 9.91946 83.1243 9.91904 83.1262 9.91824C83.1201 9.91915 83.1144 9.92195 83.1099 9.92626C83.1054 9.93056 83.1023 9.93618 83.101 9.94235V9.96475H83.1715V9.99403C83.1536 9.9923 83.1356 9.9923 83.1178 9.99403C83.104 9.99151 83.0898 9.99348 83.0772 9.99965C83.0645 10.0058 83.0541 10.0159 83.0473 10.0285C83.0322 10.0509 83.0473 10.0681 83.0775 10.0681C83.1039 10.0662 83.1303 10.0724 83.1533 10.0859C83.1763 10.0994 83.1949 10.1196 83.2067 10.1439C83.1849 10.1542 83.1648 10.1697 83.1732 10.1783C83.1771 10.1813 83.1802 10.1852 83.1823 10.1897C83.1844 10.1942 83.1853 10.1992 83.1849 10.2042C83.1849 10.2042 83.1849 10.2128 83.2067 10.2128C83.1951 10.2145 83.1841 10.2192 83.1748 10.2265C83.1654 10.2337 83.1579 10.2432 83.153 10.2541C83.138 10.3179 83.1295 10.3831 83.1279 10.4488C83.1273 10.4574 83.13 10.4658 83.1353 10.4725C83.1405 10.4792 83.1481 10.4837 83.1564 10.4849C83.1487 10.4875 83.142 10.4923 83.1369 10.4987C83.1319 10.5051 83.1287 10.5129 83.1279 10.5211C83.1279 10.5487 83.148 10.5521 83.1698 10.5538V10.8122C83.1598 10.8147 83.1509 10.8204 83.1443 10.8284C83.1376 10.8365 83.1337 10.8465 83.1329 10.857C83.1274 10.8578 83.1224 10.8608 83.119 10.8653C83.1156 10.8698 83.1139 10.8754 83.1144 10.8811C83.1189 10.8934 83.1251 10.9051 83.1329 10.9155C83.137 10.9243 83.1442 10.931 83.153 10.9345C83.143 10.9345 83.1329 10.9517 83.1329 10.9603C83.1193 10.9942 83.1131 11.0306 83.1144 11.0671C83.1128 11.0727 83.1128 11.0787 83.1144 11.0843C83.0859 11.0981 83.0641 11.1308 83.096 11.1567C83.1109 11.1717 83.1286 11.1834 83.148 11.1911C83.1416 11.1945 83.1362 11.1997 83.1326 11.2061C83.1291 11.2126 83.1274 11.2199 83.1279 11.2273C83.1279 11.2566 83.1497 11.2635 83.1748 11.2635C83.1852 11.2669 83.1963 11.2669 83.2067 11.2635C83.2058 11.2699 83.2063 11.2764 83.208 11.2827C83.2098 11.2889 83.2127 11.2947 83.2168 11.2996C83.1799 11.2996 83.1279 11.3358 83.1497 11.3444H83.1648C83.1799 11.3444 83.1413 11.3737 83.1648 11.3909L83.2067 11.4529C83.2038 11.4572 83.2018 11.4621 83.2008 11.4672C83.1997 11.4723 83.1997 11.4775 83.2006 11.4827C83.2015 11.4878 83.2035 11.4927 83.2062 11.497C83.209 11.5014 83.2126 11.5051 83.2168 11.5081L83.2285 11.515C83.2278 11.5215 83.229 11.5281 83.232 11.534C83.235 11.5398 83.2396 11.5446 83.2453 11.5477C83.2403 11.5502 83.2361 11.5542 83.2331 11.559C83.2302 11.5639 83.2286 11.5695 83.2285 11.5752V11.6045C83.2269 11.6103 83.2272 11.6165 83.2293 11.6221C83.2314 11.6276 83.2353 11.6324 83.2403 11.6355C83.2604 11.6493 83.2638 11.67 83.2772 11.6889C83.2826 11.696 83.2904 11.7009 83.299 11.7027C83.2927 11.7034 83.2866 11.7054 83.2811 11.7087C83.2756 11.712 83.2708 11.7164 83.2671 11.7217C83.2641 11.7247 83.2617 11.7283 83.2601 11.7323C83.2585 11.7363 83.2577 11.7406 83.2577 11.7449C83.2577 11.7492 83.2585 11.7535 83.2601 11.7575C83.2617 11.7615 83.2641 11.7651 83.2671 11.7682H83.2822L83.3258 11.7854H83.3426C83.3225 11.7957 83.3124 11.8112 83.3191 11.8284C83.3297 11.8464 83.3362 11.8665 83.3382 11.8874C83.3403 11.9082 83.3377 11.9293 83.3309 11.949C83.3309 11.9749 83.3644 11.9783 83.3997 11.968C83.3931 11.968 83.3867 11.9696 83.3808 11.9726C83.3749 11.9756 83.3698 11.9799 83.3658 11.9852C83.3618 11.9905 83.3589 11.9966 83.3575 12.0032C83.3561 12.0097 83.3562 12.0165 83.3577 12.0231C83.3672 12.059 83.3717 12.0961 83.3711 12.1333C83.3711 12.1678 83.3997 12.1781 83.4332 12.1729C83.4064 12.1729 83.3711 12.1919 83.3711 12.2143V12.2883C83.3711 12.3073 83.4131 12.3073 83.4483 12.2883V12.4606C83.4164 12.4606 83.3812 12.4864 83.3879 12.5054C83.4052 12.5438 83.4148 12.5854 83.4162 12.6277C83.4177 12.6699 83.4109 12.7121 83.3963 12.7517C83.3963 12.7655 83.408 12.7724 83.4282 12.7724V12.7913C83.4183 12.7913 83.4086 12.7934 83.3996 12.7976C83.3906 12.8017 83.3827 12.8078 83.3762 12.8154C83.3627 12.8344 83.3594 12.8568 83.3443 12.8757C83.3292 12.8946 83.3443 12.936 83.3879 12.936C83.3892 12.9638 83.3967 12.9909 83.4097 13.0152C83.414 13.0169 83.4188 13.0169 83.4231 13.0152C83.4299 13.0271 83.435 13.0398 83.4382 13.0531C83.4382 13.0721 83.4718 13.0755 83.497 13.0686C83.4962 13.0705 83.4958 13.0726 83.4958 13.0746C83.4958 13.0767 83.4962 13.0788 83.497 13.0807C83.4634 13.0807 83.4231 13.1013 83.4231 13.1272V13.1427C83.4231 13.1633 83.4684 13.1633 83.5054 13.1427V13.153C83.4793 13.1499 83.4531 13.1566 83.4315 13.172C83.4283 13.1787 83.423 13.1841 83.4164 13.1875C83.398 13.2064 83.4047 13.2185 83.4164 13.2219C83.4046 13.2529 83.4046 13.2874 83.4164 13.3184C83.4248 13.3511 83.4903 13.3408 83.5188 13.3184C83.5171 13.3332 83.5171 13.3483 83.5188 13.3632C83.4785 13.3632 83.4282 13.389 83.4399 13.4114C83.4644 13.461 83.4692 13.5184 83.4533 13.5716C83.4533 13.5854 83.4634 13.5905 83.4819 13.5922C83.497 13.615 83.5073 13.6409 83.5121 13.668C83.5121 13.668 83.5121 13.6801 83.5221 13.6818C83.5156 13.6852 83.51 13.69 83.5056 13.696C83.5012 13.702 83.4983 13.7089 83.497 13.7163V13.7266C83.4533 13.7714 83.5272 13.792 83.5741 13.7714C83.5724 13.7782 83.5724 13.7853 83.5741 13.792C83.5305 13.792 83.4819 13.8213 83.502 13.8403L83.5137 13.8541C83.5057 13.8544 83.498 13.8578 83.4922 13.8635C83.4863 13.8692 83.4827 13.8768 83.4819 13.8851V13.9264C83.4819 13.9695 83.5691 13.9557 83.5892 13.9264C83.5909 13.9424 83.5909 13.9586 83.5892 13.9746C83.5962 14.0058 83.6007 14.0375 83.6027 14.0694C83.5894 14.074 83.5779 14.0829 83.5698 14.0946C83.5616 14.1064 83.5573 14.1204 83.5574 14.1348C83.5574 14.1641 83.5825 14.171 83.6161 14.1675C83.5926 14.1779 83.5775 14.1951 83.5892 14.2123C83.6128 14.2454 83.6262 14.285 83.6278 14.326C83.6278 14.3398 83.6446 14.3467 83.6614 14.345C83.6647 14.3729 83.6721 14.4002 83.6832 14.4259C83.653 14.4259 83.6245 14.45 83.6278 14.4638C83.6396 14.4883 83.6497 14.5136 83.658 14.5396C83.658 14.5516 83.6916 14.5499 83.7168 14.5396C83.7213 14.5549 83.7269 14.5699 83.7335 14.5844C83.6899 14.5844 83.6446 14.6309 83.6866 14.6567C83.7097 14.6736 83.7268 14.6978 83.7352 14.7256C83.7352 14.7428 83.7688 14.7446 83.7906 14.7411C83.7972 14.7515 83.8028 14.7624 83.8074 14.7738C83.7721 14.7842 83.7419 14.8152 83.7738 14.8359C83.8092 14.8604 83.8428 14.8874 83.8745 14.9168C83.8657 14.9153 83.8568 14.9156 83.8481 14.9177C83.8395 14.9197 83.8313 14.9235 83.8241 14.9289C83.8074 14.9426 83.7906 14.9788 83.8241 14.9909L83.8459 15.0012C83.8459 15.0012 83.8459 15.0115 83.8694 15.0133L83.9131 15.0357C83.9228 15.0391 83.9335 15.0391 83.9433 15.0357V15.0908C83.943 15.096 83.9438 15.1012 83.9455 15.1061C83.9473 15.111 83.9499 15.1155 83.9534 15.1193C83.9568 15.1231 83.9609 15.1263 83.9655 15.1285C83.9701 15.1306 83.9751 15.1319 83.9802 15.1321C83.9855 15.1387 83.9917 15.1445 83.9986 15.1493C83.9835 15.1493 83.9567 15.1752 83.9718 15.1838C83.9956 15.1945 84.017 15.2103 84.0344 15.2302C84.0517 15.2501 84.0647 15.2737 84.0724 15.2992C84.0724 15.3095 84.0892 15.3113 84.1077 15.3113C84.1261 15.3113 84.1077 15.3113 84.1077 15.3216H84.1245C84.1043 15.3216 84.0909 15.344 84.0976 15.3543C84.1162 15.3858 84.1364 15.4163 84.158 15.4456C84.1681 15.4663 84.2117 15.4594 84.2419 15.4456C84.2134 15.4456 84.2419 15.4801 84.2419 15.4801C84.2554 15.5074 84.2671 15.5356 84.2771 15.5645C84.2771 15.5782 84.2989 15.5541 84.3006 15.5524V15.5627C84.2928 15.5707 84.2875 15.5809 84.2855 15.592C84.2872 15.5994 84.2872 15.607 84.2855 15.6144C84.2855 15.5972 84.2436 15.6471 84.2486 15.6678C84.2623 15.7002 84.2735 15.7336 84.2822 15.7677C84.2822 15.7935 84.3241 15.7436 84.3208 15.7229H84.3325V15.7574C84.314 15.7574 84.2906 15.8142 84.314 15.8177H84.3392C84.3543 15.8452 84.3711 15.8624 84.4013 15.8504C84.398 15.8604 84.398 15.8713 84.4013 15.8814C84.4061 15.8864 84.4099 15.8923 84.4125 15.8988C84.4151 15.9053 84.4164 15.9123 84.4164 15.9193V15.9296C84.4164 15.9296 84.4046 15.9589 84.4164 15.9658L84.4315 15.9778C84.4301 15.99 84.4331 16.0022 84.4399 16.0123C84.4399 16.0226 84.4516 16.0123 84.4617 15.9985H84.4734C84.4734 15.9985 84.4885 15.9985 84.4885 16.0088V16.0295C84.5064 16.0372 84.5233 16.047 84.5389 16.0588H84.5707C84.5858 16.0588 84.5707 16.0829 84.5707 16.0864C84.5707 16.0898 84.5707 16.1191 84.5842 16.1225C84.5976 16.126 84.6077 16.1225 84.6144 16.1329C84.6211 16.1432 84.6697 16.1174 84.6597 16.095H84.6764V16.1139C84.6822 16.1254 84.6852 16.1381 84.6852 16.1509C84.6852 16.1638 84.6822 16.1765 84.6764 16.188C84.6764 16.2035 84.7469 16.1983 84.7805 16.1776C84.7788 16.1908 84.7788 16.2041 84.7805 16.2173C84.7805 16.2173 84.767 16.2328 84.7805 16.2414C84.7947 16.2577 84.8098 16.2733 84.8258 16.2879C84.836 16.2938 84.8476 16.2969 84.8593 16.2969C84.8711 16.2969 84.8826 16.2938 84.8929 16.2879C85.0607 16.5342 85.0892 16.7443 85.3962 16.8046C85.3962 16.8046 85.5472 16.8563 85.8995 16.6324L86.0036 16.5945C86.0234 16.5997 86.0441 16.5997 86.064 16.5945L86.121 16.5773C86.1395 16.5773 86.1848 16.5566 86.1797 16.5273H86.225C86.2406 16.5304 86.2567 16.5289 86.2715 16.5231C86.2863 16.5174 86.2993 16.5075 86.3089 16.4946C86.3122 16.4901 86.314 16.4847 86.314 16.4791C86.314 16.4735 86.3122 16.468 86.3089 16.4636C86.3217 16.458 86.333 16.4492 86.3418 16.4381C86.3505 16.427 86.3565 16.4139 86.3592 16.3998H86.3777L86.428 16.3723C86.4343 16.3687 86.44 16.364 86.4448 16.3585C86.4817 16.3723 86.5438 16.3585 86.5488 16.312V16.2758C86.5616 16.2706 86.574 16.2642 86.5857 16.2569C86.626 16.2724 86.6965 16.2448 86.6965 16.2C86.6961 16.1759 86.6885 16.1524 86.6747 16.1329C86.6998 16.1329 86.6747 16.1156 86.7049 16.1019C86.7235 16.0882 86.7431 16.0761 86.7636 16.0657C86.7721 16.0622 86.7796 16.0566 86.7854 16.0494C86.7913 16.0421 86.7953 16.0335 86.7971 16.0243C86.8055 16.0243 86.7971 15.9865 86.7837 15.9813C86.7971 15.9829 86.8106 15.9829 86.824 15.9813C86.8441 15.9675 86.8575 15.9486 86.8525 15.9296C86.8533 15.9277 86.8537 15.9257 86.8537 15.9236C86.8537 15.9215 86.8533 15.9195 86.8525 15.9176H86.8827C86.8864 15.9193 86.8904 15.9202 86.8945 15.9202C86.8985 15.9202 86.9025 15.9193 86.9062 15.9176C86.9465 15.9296 86.98 15.8866 86.9817 15.8487C86.9783 15.8369 86.9783 15.8243 86.9817 15.8125C87.0052 15.8125 87.0069 15.7729 87.0069 15.7574V15.7419C87.0069 15.7419 87.0169 15.7419 87.0169 15.7264V15.7005L87.084 15.7126C87.1059 15.7126 87.0958 15.7005 87.1176 15.6833C87.1394 15.6661 87.178 15.704 87.1965 15.6833C87.2149 15.6626 87.2334 15.6316 87.1965 15.6161C87.1595 15.6006 87.183 15.58 87.1696 15.5679H87.23C87.2358 15.573 87.2427 15.5766 87.2501 15.5782C87.2768 15.5844 87.3047 15.5808 87.329 15.5679C87.329 15.5679 87.3676 15.5472 87.3441 15.5403L87.3273 15.5145C87.3693 15.5145 87.4817 15.5421 87.5136 15.5042C87.5454 15.4663 87.537 15.4714 87.5538 15.4645C87.5706 15.4577 87.5823 15.4353 87.5756 15.4249H87.5857C87.5938 15.4368 87.6048 15.4463 87.6176 15.4525C87.6441 15.4669 87.6742 15.4729 87.704 15.4698C87.7338 15.4668 87.7621 15.4547 87.7854 15.4353C87.7854 15.4353 87.8072 15.4473 87.8088 15.4353C87.8105 15.4232 87.8642 15.4594 87.8709 15.4594C87.9084 15.4597 87.9454 15.4502 87.9783 15.4318C88.0353 15.3922 87.9615 15.3612 87.9179 15.3801V15.3646H87.9733C88.0102 15.3646 88.0672 15.3474 88.0555 15.3164C88.0957 15.2854 88.1461 15.2665 88.1712 15.2217C88.1998 15.2355 88.2702 15.2217 88.2702 15.1735C88.2702 15.1252 88.2451 15.1373 88.2233 15.1356C88.2014 15.1338 88.2233 15.1356 88.2233 15.1218H88.2618C88.2908 15.1212 88.3191 15.1129 88.3441 15.0977C88.3502 15.1001 88.3568 15.1012 88.3634 15.101C88.37 15.1007 88.3765 15.0991 88.3824 15.0962C88.3884 15.0933 88.3937 15.0892 88.3981 15.0841C88.4024 15.079 88.4058 15.0731 88.4078 15.0667C88.4085 15.0627 88.4085 15.0586 88.4078 15.0546C88.4078 15.0425 88.4246 15.0339 88.4246 15.0253C88.4246 15.0167 88.4095 15.0064 88.3843 15.0029C88.3949 15.0046 88.4056 15.0046 88.4162 15.0029C88.433 15.0029 88.5605 14.9289 88.5286 14.8892C88.4967 14.8496 88.4883 14.86 88.49 14.8307C88.5018 14.8307 88.5051 14.8204 88.5051 14.7997C88.5194 14.7944 88.532 14.7852 88.5414 14.773C88.5509 14.7608 88.5569 14.7462 88.5588 14.7308C88.5727 14.729 88.586 14.7237 88.5974 14.7153C88.6003 14.7071 88.6037 14.699 88.6075 14.6912C88.6113 14.704 88.617 14.7162 88.6242 14.7273C88.6846 14.8083 88.8575 14.6688 88.792 14.5792C88.8208 14.5721 88.8477 14.5585 88.8709 14.5396C88.8899 14.5189 88.9042 14.4942 88.9128 14.4672C88.9153 14.4615 88.9165 14.4554 88.9165 14.4492C88.9165 14.4429 88.9153 14.4368 88.9128 14.4311C88.9128 14.4311 89.1477 14.3484 89.1695 14.2158C89.1713 14.1758 89.165 14.136 89.1511 14.0986L89.1662 14.0745C89.1986 14.0469 89.2348 14.0243 89.2735 14.0074C89.2853 14.0074 89.3121 13.9781 89.3172 13.9608C89.3261 13.9566 89.3339 13.9501 89.3397 13.942C89.3456 13.9339 89.3494 13.9244 89.3507 13.9143C89.354 13.887 89.3626 13.8607 89.3759 13.8368C89.3989 13.8385 89.4215 13.8437 89.443 13.8523C89.4723 13.8613 89.5034 13.8618 89.533 13.8539C89.5625 13.846 89.5894 13.83 89.6108 13.8075C89.6156 13.8026 89.6195 13.7967 89.6221 13.7902C89.6248 13.7837 89.6261 13.7767 89.6261 13.7697C89.6261 13.7626 89.6248 13.7556 89.6221 13.7491C89.6195 13.7426 89.6156 13.7367 89.6108 13.7318C89.6393 13.718 89.6661 13.7008 89.6661 13.6818V13.4872C89.6804 13.481 89.6927 13.4711 89.7018 13.4583C89.711 13.4456 89.7166 13.4306 89.7182 13.4148V13.3597C89.7182 13.3166 89.6896 13.296 89.6527 13.2874C89.6946 13.2769 89.7348 13.26 89.7718 13.2374C89.7814 13.2344 89.7898 13.2285 89.7961 13.2205C89.8024 13.2126 89.8062 13.2028 89.8071 13.1926C89.8071 13.1668 89.8071 13.1341 89.8373 13.1203C89.8675 13.1065 89.8641 13.0721 89.8373 13.0652C89.8635 13.0581 89.8872 13.0435 89.9057 13.023C89.9241 13.0026 89.9364 12.9772 89.9413 12.9498C89.9423 12.9389 89.9392 12.928 89.9326 12.9194C89.9261 12.9107 89.9166 12.905 89.9061 12.9033C89.9182 12.8945 89.9278 12.8825 89.9337 12.8685C89.9396 12.8545 89.9417 12.8391 89.9396 12.824V12.731C89.9413 12.7207 89.9413 12.7103 89.9396 12.7C89.9715 12.6149 89.9919 12.5256 90 12.4347Z" fill="#78C046"/>
</svg>
